#N canvas 1206 120 450 427 10;
#X declare -lib mrpeach;
#X declare -lib moocow;
#X obj 31 13 import mrpeach;
#X obj 231 93 udpreceive 61653;
#X obj 233 162 print;
#X obj 29 43 import moocow;
#X obj 233 124 unpackOSC;
#X msg 46 345 connect localhost 61652;
#X obj 123 398 udpsend;
#X msg 274 303 send /start;
#X msg 297 328 send /stop;
#X obj 278 369 packOSC;
#X obj 46 311 loadbang;
#X connect 1 0 4 0;
#X connect 4 0 2 0;
#X connect 5 0 6 0;
#X connect 7 0 9 0;
#X connect 8 0 9 0;
#X connect 9 0 6 0;
#X connect 10 0 5 0;
