#N canvas 430 239 240 173 12;
#X obj 35 20 inlet;
#X obj 81 20 inlet;
#X obj 81 44 t b f;
#X obj 35 129 outlet;
#X obj 35 79 f \$2;
#X obj 35 103 - \$1;
#X text 6 -1 subtraction with 2 active inlets;
#X connect 0 0 4 0;
#X connect 1 0 2 0;
#X connect 2 0 4 0;
#X connect 2 1 5 1;
#X connect 4 0 5 0;
#X connect 5 0 3 0;
