#N canvas 495 164 1078 578 12;
#X obj 497 443 outlet~;
#X obj 22 34 inlet;
#X obj 307 140 delay \$1;
#X obj 22 139 * \$2;
#X obj 22 91 t f f;
#X obj 497 416 line~;
#X obj 307 190 t b b b;
#X obj 22 191 t b f b;
#X obj 68 230 float \$1;
#X obj 588 189 t b b b;
#X obj 878 189 t b b b;
#X obj 3 -20 cnv 15 150 26 empty empty ADSR_envelope 20 12 0 14 -138142
-204786 0;
#X obj 12 228 cnv 15 1 1 empty empty A 20 12 0 44 -262144 -138142 0
;
#X obj 282 223 cnv 15 1 1 empty empty D 20 12 0 44 -262144 -138142
0;
#X obj 562 228 cnv 15 1 1 empty empty S 20 12 0 44 -262144 -138142
0;
#X obj 853 228 cnv 15 1 1 empty empty R 20 12 0 44 -262144 -138142
0;
#X obj 311 20 inlet;
#X obj 705 18 inlet;
#X obj 977 20 inlet;
#X obj 507 18 inlet;
#X text 309 0 Dtime;
#X text 702 -3 Stime;
#X text 974 -1 Rtime;
#X obj 354 232 float \$3;
#X obj 330 252 float \$4;
#X obj 382 140 * \$4;
#X obj 664 139 * \$6;
#X obj 954 139 * \$8;
#X obj 588 138 delay \$3;
#X obj 611 251 float \$6;
#X obj 901 251 float \$8;
#X obj 634 231 float \$5;
#X obj 924 231 float \$7;
#X obj 878 139 delay \$5;
#X obj 687 54 *;
#X obj 687 84 * 0.0005;
#X text 412 36 Sustain time is influenced by impact force;
#X text 505 -3 Sgain;
#X obj 181 20 inlet;
#X text 179 0 Atime;
#X connect 1 0 4 0;
#X connect 1 0 34 0;
#X connect 2 0 6 0;
#X connect 3 0 7 0;
#X connect 4 0 3 0;
#X connect 4 1 25 0;
#X connect 4 1 26 0;
#X connect 4 1 27 1;
#X connect 5 0 0 0;
#X connect 6 0 28 0;
#X connect 6 1 24 0;
#X connect 6 2 23 0;
#X connect 7 0 2 0;
#X connect 7 1 5 0;
#X connect 7 2 8 0;
#X connect 8 0 5 1;
#X connect 9 0 33 0;
#X connect 9 1 29 0;
#X connect 9 2 31 0;
#X connect 10 1 30 0;
#X connect 10 2 32 0;
#X connect 16 0 23 1;
#X connect 16 0 28 1;
#X connect 17 0 34 1;
#X connect 18 0 32 1;
#X connect 19 0 25 1;
#X connect 19 0 26 1;
#X connect 23 0 5 1;
#X connect 24 0 5 0;
#X connect 25 0 24 1;
#X connect 26 0 29 1;
#X connect 27 0 30 1;
#X connect 28 0 9 0;
#X connect 29 0 5 0;
#X connect 30 0 5 0;
#X connect 31 0 5 1;
#X connect 32 0 5 1;
#X connect 33 0 10 0;
#X connect 34 0 35 0;
#X connect 35 0 33 1;
#X connect 35 0 31 1;
#X connect 38 0 8 1;
#X connect 38 0 2 1;
#X coords 0 0 1 1 85 60 0;
