#N canvas 759 174 571 598 10;
#X obj -21 350 +;
#X obj 18 265 moses 128;
#X text 72 346 Canale;
#X text -49 371 Valore;
#X obj 17 302 & 7;
#X obj 17 325 * 128;
#X obj 79 325 / 8;
#X obj 79 300 & 120;
#X obj 88 38 % 1023;
#X obj 41 67 >> 7;
#X obj 88 89 & 127;
#X obj 10 89 +;
#X floatatom -6 203 5 0 3 0 MSB - -;
#X obj -12 41 << 3;
#X obj 24 149 t b b;
#X obj -12 66 + 128;
#X obj 24 126 r tx_bang;
#X obj -12 19 r tx_ch;
#X obj 89 17 r tx_val;
#X obj 73 181 f;
#X floatatom 73 203 5 0 0 0 LSB - -;
#X obj -5 180 f;
#X obj -22 411 gate 4;
#X obj 41 382 + 1;
#X obj -32 558 outlet;
#X obj 16 558 outlet;
#X obj 65 558 outlet;
#X obj 116 558 outlet;
#X text 79 402 considering the first 4 channels only;
#X text 128 235 Setting the baud rate has a direct effect on the Arduino
sampling frequency \; 9600 baud -> 476 Hz \; 19200 baud -> 961 Hz \;
38400 baud -> 1923 Hz \; 57600 baud -> 2778 Hz \; 115200 baud -> 5882
Hz \; In this implementation the Fs is shared among 4 channels therefore
resulting in an actual sampling frequency of Fs/4 for each channel.
;
#X obj 16 517 - 512;
#X obj 62 519 - 512;
#X obj 115 519 - 512;
#X obj 19 236 comport 2 115200;
#X connect 0 0 22 1;
#X connect 1 0 0 0;
#X connect 1 1 4 0;
#X connect 1 1 7 0;
#X connect 4 0 5 0;
#X connect 5 0 0 1;
#X connect 6 0 23 0;
#X connect 7 0 6 0;
#X connect 8 0 9 0;
#X connect 8 0 10 0;
#X connect 9 0 11 1;
#X connect 10 0 19 1;
#X connect 11 0 21 1;
#X connect 12 0 33 0;
#X connect 13 0 15 0;
#X connect 14 0 19 0;
#X connect 14 1 21 0;
#X connect 15 0 11 0;
#X connect 16 0 14 0;
#X connect 17 0 13 0;
#X connect 18 0 8 0;
#X connect 19 0 20 0;
#X connect 20 0 33 0;
#X connect 21 0 12 0;
#X connect 22 0 24 0;
#X connect 22 1 30 0;
#X connect 22 2 31 0;
#X connect 22 3 32 0;
#X connect 23 0 22 0;
#X connect 30 0 25 0;
#X connect 31 0 26 0;
#X connect 32 0 27 0;
#X connect 33 0 1 0;
