#N canvas 351 64 778 276 10;
#X obj 62 228 outlet;
#X obj 264 231 outlet;
#X obj 69 82 unpack f f f;
#X floatatom 76 177 5 0 0 1 velocity_[m/s] - -;
#X obj 62 147 * -1;
#X floatatom 277 176 5 0 0 1 gain - -;
#X obj 285 126 maxlib/scale 0 1023 \$3 \$4 0;
#X obj 69 26 inlet;
#X text 114 25 from bonk~ right outlet;
#X text 418 25 Maps the energy values provided by bonk~ to velocities
and gains of the SDT impact model;
#X text 418 57 ARGS: #1 minimum velocity \, #2 maximum velocity \;
#3 minimum gain \, #4 maximum gain.;
#X obj 303 53 value noise_thr;
#X obj 62 126 maxlib/scale 0 1023 \$1 \$2 0;
#X obj 303 30 loadbang;
#X obj 360 31 bng 15 250 50 0 empty empty empty 17 7 0 10 -262144 -1
-1;
#X connect 2 1 6 0;
#X connect 2 1 12 0;
#X connect 4 0 3 0;
#X connect 4 0 0 0;
#X connect 6 0 5 0;
#X connect 6 0 1 0;
#X connect 7 0 2 0;
#X connect 12 0 4 0;
#X connect 13 0 11 0;
#X connect 14 0 11 0;
