#N canvas 621 201 795 796 12;
#X obj 521 207 f;
#X obj 512 252 - 1;
#X obj 510 325 sel -1;
#X obj 424 267 bng 15 250 50 0 empty empty empty 17 7 0 10 -262144
-1 -1;
#X obj 349 231 f;
#X obj 332 278 - 1;
#X obj 139 354 bng 15 250 50 0 empty empty empty 17 7 0 10 -262144
-1 -1;
#X msg 390 15 1;
#X msg 434 15 0;
#X obj 480 70 metro 1000;
#X obj 111 126 bng 24 250 50 0 empty runbut start -4 -12 1 20 -143491
-204800 -262144;
#X obj 115 190 bng 15 250 50 0 empty empty stop -4 -5 0 12 -258113
-258113 -1;
#X obj 262 113 cnv 32 100 32 empty empty target: 18 14 1 20 -13381
-262144 0;
#X obj 151 182 cnv 32 100 32 empty process target? 18 15 1 24 -212993
-262144 0;
#X obj 368 125 nbx 2 20 0 59 0 0 empty empty min 2 -12 1 20 -228856
-1 -1 20 256;
#X obj 419 125 nbx 2 20 0 59 0 0 empty empty sec 2 -12 1 20 -191407
-1 -1 0 256;
#X obj 257 177 nbx 2 40 0 59 0 0 empty empty min 2 -12 1 24 -262144
-258113 -1 19 256;
#X obj 323 177 nbx 2 40 0 59 0 0 empty empty sec 4 -12 1 24 -262144
-260097 -1 21 256;
#X obj 166 393 s re;
#X obj 144 527 r re;
#X obj 755 3 s re;
#X msg 135 470 \; process label done!;
#X msg 140 588 \; process label target?;
#X msg 74 -16 \; process label togo:;
#X msg 518 9 \; process label stop!;
#X msg 76 32 \; runbut color 23;
#X msg 329 584 \; runbut color 7;
#X msg 476 581 \; runbut color label 2;
#X msg 578 170 59;
#X obj 416 234 sel 59;
#X obj 276 310 sel 0;
#X msg 330 360 1;
#X obj 303 408 spigot;
#X obj 305 445 sel 0;
#X msg 379 345 0;
#X obj 141 558 del 3000;
#X floatatom 425 327 5 0 0 0 - - -;
#X floatatom 405 454 5 0 0 0 - - -;
#X obj 334 -7 inlet;
#X connect 0 0 1 0;
#X connect 0 0 17 0;
#X connect 1 0 0 1;
#X connect 1 0 2 0;
#X connect 2 0 28 0;
#X connect 3 0 4 0;
#X connect 4 0 5 0;
#X connect 4 0 16 0;
#X connect 4 0 30 0;
#X connect 4 0 36 0;
#X connect 5 0 4 1;
#X connect 6 0 8 0;
#X connect 6 0 21 0;
#X connect 6 0 18 0;
#X connect 6 0 34 0;
#X connect 7 0 9 0;
#X connect 8 0 9 0;
#X connect 9 0 0 0;
#X connect 10 0 9 0;
#X connect 10 0 14 0;
#X connect 10 0 15 0;
#X connect 10 0 23 0;
#X connect 10 0 25 0;
#X connect 11 0 8 0;
#X connect 11 0 24 0;
#X connect 11 0 20 0;
#X connect 11 0 34 0;
#X connect 14 0 4 0;
#X connect 15 0 0 0;
#X connect 17 0 29 0;
#X connect 17 0 32 0;
#X connect 19 0 26 0;
#X connect 19 0 27 0;
#X connect 19 0 35 0;
#X connect 28 0 0 1;
#X connect 29 0 3 0;
#X connect 30 0 31 0;
#X connect 30 1 34 0;
#X connect 31 0 32 1;
#X connect 32 0 33 0;
#X connect 32 0 37 0;
#X connect 33 0 6 0;
#X connect 34 0 32 1;
#X connect 35 0 22 0;
#X connect 38 0 14 0;
#X coords 0 -1 1 1 368 120 2 100 100;
