#N canvas 978 288 484 392 10;
#X obj 161 134 vsl 15 100 0 1023 0 0 empty empty pressure -5 -10 0
10 -4160 -262144 -4160 0 1;
#X floatatom 125 144 5 0 0 0 - - -;
#X obj 142 43 inlet;
#X obj 50 43 inlet;
#X text 34 28 from sensor;
#X floatatom 142 66 5 0 0 0 - - -;
#X text 140 26 upper thr;
#X obj 180 133 vsl 15 100 0 1023 0 0 empty empty empty -5 -10 0 10
-262144 -1 -1 0 1;
#X floatatom 125 221 5 0 0 0 - - -;
#X obj 72 352 outlet;
#X text 122 205 out;
#X text 122 127 in;
#X obj 74 292 / 1023;
#X text 125 300 10 bit values are assumed (0-1023) and converted to
the range 0-1;
#X obj 50 264 _filterPressFrict 0;
#X connect 2 0 5 0;
#X connect 3 0 0 0;
#X connect 3 0 1 0;
#X connect 3 0 14 0;
#X connect 5 0 7 0;
#X connect 5 0 14 1;
#X connect 12 0 8 0;
#X connect 12 0 9 0;
#X connect 14 0 12 0;
#X coords 0 -1 1 1 100 140 1 120 100;
