#N canvas 812 89 820 647 10;
#X msg 232 405 stop;
#X obj 63 581 outlet;
#X obj 12 22 inlet;
#X obj 228 22 inlet;
#X obj 207 262 f;
#X obj 232 509 delay;
#X obj 207 288 * \$1;
#X obj 125 581 outlet;
#X obj 277 22 inlet;
#X obj 334 581 outlet;
#X obj 255 581 outlet;
#X obj 418 22 inlet;
#X obj 469 22 inlet;
#X obj 63 204 t b;
#X obj 12 106 select 0;
#X text 408 264 velo;
#X obj 283 471 *;
#X obj 530 22 inlet;
#X obj 426 471 *;
#X obj 570 22 inlet;
#X obj 442 406 t b f;
#X msg 580 442 1;
#X obj 232 337 moses \$2;
#X obj 283 369 moses \$3;
#X obj 372 263 f \$4;
#X obj 395 228 f \$4;
#X obj 372 289 * \$5;
#X obj 328 22 inlet;
#X text 6 3 initial interval (ms);
#X text 234 263 actual maxtime;
#X text 145 3 ac/deceleration-factor;
#X text 269 40 min/max interval (ms);
#X text 57 599 bang out;
#X text 327 599 stop time out;
#X text 119 599 maxtime out;
#X text 248 599 value out;
#X obj 283 405 t b f;
#X text 409 3 initial value;
#X text 461 40 ac/deceleration-factor;
#X text 110 183 with each restart \, reset initial value and "park"
value randomization at 1;
#X text 483 408 bang actual value before randomizer \, to assure that
the initial value is send first;
#X obj 63 164 t b b f;
#X text 5 75 a "0" at this inlet stops the dropper and is passed to
the stop outlet;
#X text 523 4 maximal random interval-/value-reduction;
#X obj 283 442 _randy \$6 1 100000;
#X obj 442 442 _randy \$7 1 100000;
#X connect 0 0 5 0;
#X connect 2 0 14 0;
#X connect 3 0 6 1;
#X connect 4 0 6 0;
#X connect 4 0 7 0;
#X connect 4 0 22 0;
#X connect 5 0 13 0;
#X connect 6 0 4 1;
#X connect 8 0 22 1;
#X connect 11 0 25 1;
#X connect 12 0 26 1;
#X connect 13 0 1 0;
#X connect 13 0 4 0;
#X connect 13 0 24 0;
#X connect 14 0 9 0;
#X connect 14 0 0 0;
#X connect 14 1 41 0;
#X connect 16 0 5 0;
#X connect 17 0 44 1;
#X connect 18 0 10 0;
#X connect 19 0 45 1;
#X connect 20 0 45 0;
#X connect 20 1 18 0;
#X connect 21 0 18 1;
#X connect 22 0 0 0;
#X connect 22 0 9 0;
#X connect 22 1 23 0;
#X connect 23 0 36 0;
#X connect 23 1 9 0;
#X connect 23 1 0 0;
#X connect 24 0 20 0;
#X connect 24 0 26 0;
#X connect 25 0 24 1;
#X connect 26 0 24 1;
#X connect 27 0 23 1;
#X connect 36 0 44 0;
#X connect 36 1 16 1;
#X connect 41 0 13 0;
#X connect 41 1 21 0;
#X connect 41 1 25 0;
#X connect 41 2 4 1;
#X connect 44 0 16 0;
#X connect 45 0 18 1;
