#N canvas 660 88 645 499 10;
#X obj 100 -221 comport 2 9600;
#X obj 99 -190 select 13 10 33;
#X obj 187 -127 list prepend;
#X obj 186 -159 makefilename %c;
#X obj 280 -126 t l;
#X obj 99 -158 bng 15 50 10 0 empty empty empty 0 -6 0 10 -262144 -1
-1;
#X obj 99 -93 list append;
#X obj 98 10 list trim;
#X symbolatom 99 -37 10 0 0 0 - - -;
#X obj 99 -63 list2symbol;
#X symbolatom 185 -45 10 0 0 0 - - -;
#X obj 101 -12 symbol2list;
#X msg 185 -68 symbol;
#X obj 437 68 list trim;
#X msg 535 -22 symbol !;
#X obj 534 -44 bng 15 250 50 0 empty empty empty 17 7 0 10 -262144
-1 -1;
#X obj 443 -192 tgl 15 0 empty empty empty 17 7 0 10 -262144 -1 -1
1 1;
#X obj 441 153 ascseq;
#X obj 441 125 list2symbol;
#X obj 440 97 list append;
#X obj 431 3 pack s f f f f f s;
#X msg 404 -31 B;
#X obj 106 148 tgl 15 0 b3 empty yes 17 7 0 10 -4034 -1 -1 0 1;
#X obj 164 119 tgl 15 0 b2 empty write 17 7 0 10 -258113 -1 -1 0 1
;
#X obj 163 148 tgl 15 0 b4 empty no 17 7 0 10 -258113 -1 -1 0 1;
#X obj 105 119 tgl 15 0 b1 empty go 17 7 0 10 -257985 -1 -1 0 1;
#X obj 43 59 nbx 1 14 -1e+37 1e+37 0 0 empty empty switch 0 -8 0 10
-262144 -1 -1 0 256;
#X text 463 -196 piano;
#X text 404 -227 OUTPUT (piano switch + button lights);
#X obj 97 43 unpack f f f f f;
#X obj 371 -195 r modality;
#X obj 63 122 s GO;
#X obj 63 96 sel 1;
#X obj 515 -125 tgl 15 0 empty b3 b3 17 7 0 10 -4034 -1 -1 0 1;
#X obj 535 -100 tgl 15 0 empty b4 b4 17 7 0 10 -258113 -1 -1 0 1;
#X obj 497 -143 tgl 15 0 empty b2 b2 17 7 0 10 -258113 -1 -1 0 1;
#X obj 474 -166 tgl 15 0 empty b1 b1 17 7 0 10 -257985 -1 -1 0 1;
#X obj 106 181 sel 1;
#X obj 130 237 s Y/N;
#X obj 150 181 sel 1;
#X obj 225 94 sel 1;
#X obj 225 119 s WRITE;
#X msg 106 208 1;
#X msg 150 208 0;
#X obj 277 121 delay 200;
#X msg 278 147 0;
#X obj 184 210 delay 200;
#X msg 185 236 0;
#X obj 40 208 delay 200;
#X msg 41 234 0;
#X obj -3 124 delay 200;
#X msg -2 150 0;
#X connect 0 0 1 0;
#X connect 1 0 5 0;
#X connect 1 3 3 0;
#X connect 2 0 4 0;
#X connect 2 0 6 1;
#X connect 3 0 2 0;
#X connect 4 0 2 1;
#X connect 5 0 2 1;
#X connect 5 0 6 0;
#X connect 6 0 9 0;
#X connect 7 0 29 0;
#X connect 8 0 11 0;
#X connect 9 0 8 0;
#X connect 10 0 9 1;
#X connect 11 0 7 0;
#X connect 12 0 10 0;
#X connect 13 0 19 0;
#X connect 14 0 20 6;
#X connect 15 0 14 0;
#X connect 16 0 20 1;
#X connect 16 0 15 0;
#X connect 16 0 21 0;
#X connect 17 0 0 0;
#X connect 18 0 17 0;
#X connect 19 0 18 0;
#X connect 20 0 13 0;
#X connect 21 0 20 0;
#X connect 22 0 37 0;
#X connect 23 0 40 0;
#X connect 24 0 39 0;
#X connect 25 0 32 0;
#X connect 29 0 26 0;
#X connect 29 1 22 0;
#X connect 29 2 24 0;
#X connect 29 3 23 0;
#X connect 29 4 25 0;
#X connect 30 0 16 0;
#X connect 32 0 31 0;
#X connect 32 0 50 0;
#X connect 33 0 21 0;
#X connect 33 0 20 2;
#X connect 33 0 15 0;
#X connect 34 0 21 0;
#X connect 34 0 15 0;
#X connect 34 0 20 3;
#X connect 35 0 21 0;
#X connect 35 0 15 0;
#X connect 35 0 20 4;
#X connect 36 0 15 0;
#X connect 36 0 20 5;
#X connect 36 0 21 0;
#X connect 37 0 42 0;
#X connect 37 0 48 0;
#X connect 39 0 43 0;
#X connect 39 0 46 0;
#X connect 40 0 41 0;
#X connect 40 0 44 0;
#X connect 42 0 38 0;
#X connect 43 0 38 0;
#X connect 44 0 45 0;
#X connect 45 0 23 0;
#X connect 46 0 47 0;
#X connect 47 0 24 0;
#X connect 48 0 49 0;
#X connect 49 0 22 0;
#X connect 50 0 51 0;
#X connect 51 0 25 0;
#X coords 0 -1 1 1 120 70 1 100 100;
