#N canvas 732 265 736 644 10;
#X floatatom 47 57 5 0 0 0 - - -;
#X obj 10 166 moses \$1;
#X obj 10 56 inlet;
#X obj 55 493 outlet;
#X obj 55 106 inlet;
#X floatatom 65 167 5 0 0 0 - - -;
#X obj 88 248 once;
#X obj 158 215 bng 15 250 50 0 empty empty empty 17 7 0 10 -262144
-1 -1;
#X obj 158 193 once;
#X text 53 89 Upper threshold;
#X obj 490 109 inlet;
#X obj 203 108 inlet;
#X text 201 91 Lower threshold;
#X floatatom 213 170 5 0 0 0 - - -;
#X obj 158 169 moses \$2;
#X obj 55 422 _uponly_smooth \$4;
#X text 474 92 Smoothing (samples);
#X floatatom 65 128 5 0 0 0 - - -;
#X floatatom 214 131 5 0 0 0 - - -;
#X floatatom 499 130 5 0 0 0 - - -;
#X obj 106 334 bng 15 100 10 0 empty empty empty 17 7 0 10 -262144
-1 -1;
#X obj 55 394 spigot;
#X obj 88 370 tgl 15 0 empty empty empty 17 7 0 10 -262144 -258113
-258113 0 1;
#X obj 88 272 bng 15 250 50 0 empty empty empty 17 7 0 10 -262144 -1
-1;
#X obj 390 108 inlet;
#X floatatom 399 129 5 0 0 0 - - -;
#X obj -68 -5 vsl 15 128 0 1023 0 0 empty empty simulate_input_data
-40 -9 0 10 -262144 -1 -1 0 1;
#X floatatom -50 109 5 0 0 0 - - -;
#X text 58 -71 INIT VALUES \; \$1 upper threshold \; \$2 lower threshold
\; \$3 duration (ms) \; \$4 smoothing (samples);
#X text 379 91 Duration (ms);
#X text 125 247 Reset the previous [once] when upcrossing the upper
threshold.;
#X floatatom 65 444 5 0 0 0 - - -;
#X text -109 -127 INFO: pressure/force data filtering algorithm \,
meant to be used with FSR or similar sensors.;
#X text 163 308 Block the output after the set delay.;
#X obj 34 444 bng 15 250 50 0 empty empty empty 17 7 0 10 -262144 -1
-1;
#X text 166 420 Only growing data streams are passed through \; Data
are also smoothed in order to clean some high-frequency noise.;
#X text 202 76 N.B. lower thr must be >= 1;
#X text 260 -126 ALGORITHM: When upcrossing the upper threshold (1st
parameter) \, a data stream is passed through (i.e. filtering out low
force events) \; The stream is passed only for the time set by the
3rd parameter \; In addition \, a debouncing mechanism is implemented:
if the data stream falls under the lower threshold (2nd parameter)
\, the system is reset \, otherwise it would not pass further data
\; Before being passed on \, data streams are smoothed according to
the number of samples set by the 4th parameter \; Finally \, only growing
data streams are passed through (i.e. when the pressure increases).
;
#X text 163 331 TODO: make the predifined duration optional;
#X text 189 193 Reset the next [once] when downcrossing the lower threshold.
;
#X obj 106 309 pipe \$3;
#X text 111 369 NB Se mando 2 bang a delay entro finestra temporale
passa 1 solo bang e il toggle diventa bistabile. Con pipe tutto OK.
;
#X connect 1 1 5 0;
#X connect 1 1 21 0;
#X connect 1 1 6 0;
#X connect 2 0 0 0;
#X connect 2 0 1 0;
#X connect 2 0 14 0;
#X connect 4 0 1 1;
#X connect 4 0 17 0;
#X connect 6 0 23 0;
#X connect 7 0 6 1;
#X connect 8 0 7 0;
#X connect 10 0 15 1;
#X connect 10 0 19 0;
#X connect 11 0 14 1;
#X connect 11 0 18 0;
#X connect 14 0 8 0;
#X connect 14 1 13 0;
#X connect 15 0 3 0;
#X connect 15 0 31 0;
#X connect 15 0 34 0;
#X connect 20 0 22 0;
#X connect 21 0 15 0;
#X connect 22 0 21 1;
#X connect 23 0 22 0;
#X connect 23 0 8 1;
#X connect 23 0 40 0;
#X connect 24 0 25 0;
#X connect 24 0 40 1;
#X connect 26 0 27 0;
#X connect 27 0 1 0;
#X connect 27 0 14 0;
#X connect 40 0 20 0;
