#N canvas 608 165 377 242 10;
#X msg -48 58 1;
#X msg 9 58 2;
#X obj -60 33 inlet;
#X obj 8 34 inlet;
#X obj 0 207 outlet;
#X obj 84 208 outlet;
#X obj 158 82 inlet;
#X text 147 62 data to be routed;
#X obj 67 162 gate 3;
#X obj 147 207 outlet;
#X text -108 8 bang in the first 3 inlets to route to the corresponding
outlet;
#X obj 62 34 inlet;
#X msg 63 58 3;
#X connect 0 0 8 0;
#X connect 1 0 8 0;
#X connect 2 0 0 0;
#X connect 3 0 1 0;
#X connect 6 0 8 1;
#X connect 8 0 4 0;
#X connect 8 1 5 0;
#X connect 8 2 9 0;
#X connect 11 0 12 0;
#X connect 12 0 8 0;
