#N canvas 0 22 478 432 10;
#X floatatom 287 68 5 0 0 0 - - -;
#X obj 287 44 inlet;
#X obj 163 49 inlet~;
#X obj 300 361 outlet~;
#X text 57 31 signal to be high-passed;
#X text 286 27 cut frequency;
#X obj 300 171 hip~ \$1;
#X obj 300 195 hip~ \$1;
#X obj 300 217 hip~ \$1;
#X obj 300 240 hip~ \$1;
#X obj 300 262 hip~ \$1;
#X obj 300 286 hip~ \$1;
#X obj 300 308 hip~ \$1;
#X obj 300 331 hip~ \$1;
#X connect 0 0 6 1;
#X connect 0 0 7 1;
#X connect 0 0 8 1;
#X connect 0 0 9 1;
#X connect 0 0 10 1;
#X connect 0 0 11 1;
#X connect 0 0 12 1;
#X connect 0 0 13 1;
#X connect 1 0 0 0;
#X connect 2 0 6 0;
#X connect 6 0 7 0;
#X connect 7 0 8 0;
#X connect 8 0 9 0;
#X connect 9 0 10 0;
#X connect 10 0 11 0;
#X connect 11 0 12 0;
#X connect 12 0 13 0;
#X connect 13 0 3 0;
