#N canvas 270 156 1028 539 10;
#X obj 589 324 vsl 15 141 0 140 0 1 empty empty lev1 -10 -10 0 10 -262144
-1 -1 8000 1;
#X obj 616 324 vsl 15 141 0 140 0 1 empty empty lev2 -10 -10 0 10 -262144
-1 -1 10000 1;
#X floatatom 586 480 3 0 0 0 - - -;
#X floatatom 616 480 3 0 0 0 - - -;
#X obj 710 420 tgl 23 0 empty empty phase-reverse 0 -10 0 10 -262144
-1 -1 0 -2;
#X msg -111 98 1;
#X obj 660 324 vsl 15 141 0 140 0 1 empty empty lev1 -10 -10 0 10 -262144
-1 -1 0 1;
#X obj 688 323 vsl 15 141 0 140 0 1 empty empty lev2 -10 -10 0 10 -262144
-1 -1 0 1;
#X floatatom 660 480 3 0 0 0 - - -;
#X floatatom 690 480 3 0 0 0 - - -;
#X obj 822 420 tgl 23 0 empty empty phase-reverse 0 -10 0 10 -262144
-1 -1 0 -2;
#X obj 772 323 vsl 15 141 0 140 0 1 empty empty lev1 -10 -10 0 10 -262144
-1 -1 0 1;
#X obj 802 323 vsl 15 141 0 140 0 1 empty empty lev2 -10 -10 0 10 -262144
-1 -1 0 1;
#X floatatom 772 479 3 0 0 0 - - -;
#X floatatom 802 479 3 0 0 0 - - -;
#X obj 710 449 + 1;
#X obj 822 449 + 1;
#X floatatom 26 128 8 0 0 0 - - -;
#X floatatom 87 128 6 0 0 0 - - -;
#X obj 162 -4 vsl 15 121 1e-005 0.999999 1 1 empty empty mu 0 -10 0
10 -262144 -1 -1 0 1;
#X floatatom 162 128 8 0 0 0 - - -;
#X obj 231 -5 vsl 15 121 1e-006 100 1 1 empty empty hammer_mass -20
-10 0 10 -262144 -1 -1 7500 1;
#X floatatom 231 128 6 0 0 0 - - -;
#X obj -78 314 * 0;
#X obj 713 -8 inlet;
#X obj 266 477 outlet~;
#X obj 266 428 +~;
#X obj 756 -8 inlet;
#X obj 323 -7 inlet;
#X obj 386 -8 inlet;
#X obj 322 253 _modal_object_parameters2_3 500 5000 0.1 0.1 1 1 1 1
1 1;
#X floatatom 332 16 5 0 0 0 - - -;
#X floatatom 395 15 5 0 0 0 - - -;
#X floatatom 717 15 5 0 0 0 - - -;
#X floatatom 761 15 5 0 0 0 - - -;
#X obj 24 -16 inlet;
#X obj 87 -16 inlet;
#X obj -112 -16 inlet;
#X obj -59 -16 inlet;
#X obj 22 379 impact_inertialb_modalb~ 1e+007 1.5 0 1 2 3 d d d 1 1
1 500 5000 0.1 0.1 0 1 1 1 1 1 2 1 1;
#X obj 26 184 _par_to_list4 1e+007 1.5 1e-006 0.1;
#X obj 451 -8 inlet;
#X floatatom 460 15 5 0 0 0 - - -;
#X obj 558 -8 inlet;
#X obj 601 -8 inlet;
#X floatatom 562 15 5 0 0 0 - - -;
#X floatatom 606 15 5 0 0 0 - - -;
#X text 445 -23 gain_fact;
#X text 375 -23 decay_fact;
#X text 313 -23 freq_fact;
#X text 527 -23 freq_mode0;
#X text 600 -23 freq_mode1;
#X text 682 -23 decay_mode0;
#X text 755 -23 decay_mode1;
#X text 589 289 mode0;
#X text 660 289 mode1;
#X text 774 287 mode2;
#X obj 266 453 *~ 1000;
#X floatatom -49 8 7 0 0 0 - - -;
#X obj -101 7 bng 15 250 50 0 empty empty empty 17 7 0 10 -262144 -1
-1;
#X obj 164 163 _actx;
#X connect 0 0 2 0;
#X connect 1 0 3 0;
#X connect 2 0 30 7;
#X connect 3 0 30 8;
#X connect 4 0 15 0;
#X connect 5 0 23 0;
#X connect 6 0 8 0;
#X connect 7 0 9 0;
#X connect 8 0 30 10;
#X connect 9 0 30 11;
#X connect 10 0 16 0;
#X connect 11 0 13 0;
#X connect 12 0 14 0;
#X connect 13 0 30 13;
#X connect 14 0 30 14;
#X connect 15 0 30 12;
#X connect 16 0 30 15;
#X connect 17 0 40 0;
#X connect 17 0 60 0;
#X connect 18 0 40 1;
#X connect 19 0 20 0;
#X connect 20 0 60 1;
#X connect 21 0 22 0;
#X connect 22 0 40 3;
#X connect 23 0 39 3;
#X connect 24 0 30 5;
#X connect 24 0 33 0;
#X connect 26 0 57 0;
#X connect 27 0 30 6;
#X connect 27 0 34 0;
#X connect 28 0 30 0;
#X connect 28 0 31 0;
#X connect 29 0 30 1;
#X connect 29 0 32 0;
#X connect 30 0 39 5;
#X connect 30 1 39 6;
#X connect 30 2 39 7;
#X connect 30 3 39 8;
#X connect 30 4 39 8;
#X connect 30 5 39 8;
#X connect 35 0 17 0;
#X connect 36 0 18 0;
#X connect 37 0 5 0;
#X connect 37 0 59 0;
#X connect 38 0 23 1;
#X connect 38 0 58 0;
#X connect 39 1 26 0;
#X connect 39 2 26 1;
#X connect 40 1 39 4;
#X connect 41 0 42 0;
#X connect 41 0 30 2;
#X connect 43 0 45 0;
#X connect 44 0 46 0;
#X connect 45 0 30 3;
#X connect 46 0 30 4;
#X connect 57 0 25 0;
#X connect 60 0 40 2;
