#N canvas 142 22 1298 803 10;
#X text -28 619 external force on object 2 > |;
#X text -28 633 additional offset between objects > |;
#X obj 269 50 vsl 15 120 1 2e+11 1 1 empty empty k_(elasticity) -20
-10 1 10 -225271 -1 -62784 8300 1;
#X floatatom 269 175 10 0 0 0 - - -;
#X obj 355 48 vsl 15 120 1 4 1 1 empty empty alpha -10 -10 1 10 -262131
-1 -62784 3500 1;
#X floatatom 355 173 6 0 0 0 - - -;
#X obj 435 48 vsl 15 120 1e-05 0.99 0 1 empty empty mu 0 -10 1 10 -261689
-1 -62784 11900 1;
#X floatatom 435 174 8 0 0 0 - - -;
#X obj 249 7 cnv 15 230 20 empty empty interactor-properties 10 10
1 10 -166441 -262144 0;
#X obj 295 288 vsl 15 121 0.001 10 1 1 empty empty Mass 0 -10 1 10
-199005 -1 -62784 6000 1;
#X floatatom 295 412 6 0 0 0 - - -;
#X floatatom 112 448 8 0 0 0 - - -;
#X msg 63 302 1;
#X obj 112 344 vsl 15 101 -0.0001 -100 1 1 empty empty hammer_strike_velocity
-40 -10 1 10 -258699 -1 -62784 6700 1;
#X obj 63 465 * 0;
#X obj 63 273 _keystroke a;
#X obj 111 304 bng 15 250 50 0 empty empty empty 0 -6 0 8 -258699 -1
-1;
#X text 133 300 < press 'a' to strike;
#X floatatom -48 396 7 0 0 0 - - -;
#X obj -48 292 vsl 15 101 0 -100 0 1 empty empty constant_force_on_hammer
-60 -10 1 10 -233017 -1 -62784 0 1;
#X text -110 249 comment;
#X obj -110 247 cnv 15 450 20 empty empty inertial_hammer_(object1)-controls_and_property
10 10 1 10 -166441 -262144 0;
#X text 543 541 < list of decay times;
#X floatatom 894 337 4 0 500 0 - - -;
#X obj 894 285 vsl 15 49 0.125 8 1 1 empty empty freq-fact -10 -10
1 8 -260818 -1 -62784 1000 1;
#X floatatom 893 490 4 0 500 0 - - -;
#X obj 893 437 vsl 15 49 0.125 8 1 1 empty empty decay-fact -10 -10
1 8 -16059 -1 -62784 300 1;
#X floatatom 892 642 4 0 500 0 - - -;
#X obj 892 589 vsl 15 49 1e-05 10 1 1 empty empty gain-fact -10 -10
1 8 -24198 -1 -62784 4000 1;
#X obj 417 246 cnv 15 760 20 empty empty modal_resonator_(object2)-properties
10 10 1 10 -166441 -262144 0;
#X text 492 515 < list of freqs;
#X text 868 706 pickup 0;
#X obj 418 470 _modal_object_parameters6_2 200 400 800 1600 3200 6400
0.1 0.1 0.1 0.1 0.1 0.1 1 1 1 1 1 1 1 1 1 1 1 1;
#X obj 261 707 *~ 10000;
#X text 572 583 < lists of levels (starting with number of pickup)
;
#X obj 952 85 cnv 15 220 20 empty empty impact_inertialb_modalb~ 20
12 0 14 -262144 -260097 0;
#X msg -26 730 actmodes2 2;
#X msg -26 752 actmodes2 4;
#X text -27 712 set the number of active modes;
#X msg -26 774 actmodes2 6;
#X obj 408 194 _actx;
#X text 320 703 < only needed when pickups read displacement (since
it's a very weak signal);
#X obj 922 5 _SDT_label;
#X obj -58 52 inlet;
#X obj 261 764 outlet~;
#X obj 105 652 impact_inertialb_modalb~ 1e+07 1.5 1e+06 0.1 6 2 d d
1 1 1 200 400 800 1600 3200 6400 0.1 0.1 0.1 0.1 0.1 0.1 0 1 1 1 1
1 1 1 1 1 1 1 1 1;
#X obj 923 272 _slider6freq;
#X obj 923 424 _slider6decay;
#X obj 922 576 _slider6gain;
#X obj 269 216 _par_to_list4 1e+07 1 1e+06 0.1;
#X connect 2 0 3 0;
#X connect 3 0 40 0;
#X connect 3 0 49 0;
#X connect 4 0 5 0;
#X connect 5 0 49 1;
#X connect 6 0 7 0;
#X connect 7 0 40 1;
#X connect 9 0 10 0;
#X connect 10 0 49 3;
#X connect 11 0 14 1;
#X connect 12 0 14 0;
#X connect 13 0 11 0;
#X connect 14 0 45 3;
#X connect 15 0 12 0;
#X connect 15 0 16 0;
#X connect 18 0 45 0;
#X connect 19 0 18 0;
#X connect 23 0 32 0;
#X connect 24 0 23 0;
#X connect 25 0 32 1;
#X connect 26 0 25 0;
#X connect 27 0 32 2;
#X connect 28 0 27 0;
#X connect 32 0 45 5;
#X connect 32 1 45 6;
#X connect 32 2 45 7;
#X connect 32 3 45 8;
#X connect 32 4 45 8;
#X connect 33 0 44 0;
#X connect 36 0 45 0;
#X connect 37 0 45 0;
#X connect 39 0 45 0;
#X connect 40 0 49 2;
#X connect 43 0 12 0;
#X connect 45 0 33 0;
#X connect 46 0 32 3;
#X connect 46 1 32 4;
#X connect 46 2 32 5;
#X connect 46 3 32 6;
#X connect 46 4 32 7;
#X connect 46 5 32 8;
#X connect 47 0 32 9;
#X connect 47 1 32 10;
#X connect 47 2 32 11;
#X connect 47 3 32 12;
#X connect 47 4 32 13;
#X connect 47 5 32 14;
#X connect 48 0 32 15;
#X connect 48 1 32 16;
#X connect 48 2 32 17;
#X connect 48 3 32 18;
#X connect 48 4 32 19;
#X connect 48 5 32 20;
#X connect 49 1 45 4;
