#N canvas 665 110 171 207 10;
#X obj 7 84 -;
#X obj 7 59 t f f;
#X floatatom 7 106 5 0 0 0 - - -;
#X obj 7 20 inlet;
#X obj 7 179 outlet;
#X text -62 85 difference;
#X floatatom -34 21 5 0 0 0 - - -;
#X floatatom 7 152 5 0 0 0 - - -;
#X obj 7 129 > 0;
#X connect 0 0 2 0;
#X connect 1 0 0 1;
#X connect 1 1 0 0;
#X connect 2 0 8 0;
#X connect 3 0 1 0;
#X connect 6 0 1 0;
#X connect 7 0 4 0;
#X connect 8 0 7 0;
