#N canvas 44 82 1265 558 10;
#X obj 418 21 cnv 15 100 20 empty empty inertial_impact 20 12 0 14
-262144 -260097 0;
#X obj 308 -60 _SDT_label;
#N canvas 719 192 387 404 hammer_controls 0;
#X obj 10 31 cnv 15 255 260 empty empty empty 20 12 0 14 -257965 -66577
0;
#X obj 61 58 vsl 20 60 -0 -100 0 1 empty empty empty 0 -8 0 8 -191407
-1 -1 0 1;
#X floatatom 61 125 0 0 0 0 - - -;
#X obj 161 353 * 0;
#X floatatom 106 222 0 0 0 0 - - -;
#X obj 139 245 bng 15 250 50 0 empty empty empty 17 7 0 10 -258113
-1 -1;
#X obj 109 198 hsl 60 20 -0.0001 -10000 0 1 empty empty empty -2 -8
0 10 -258113 -1 -1 1 1;
#X obj 146 98 hsl 60 20 1 1e-005 1 1 empty empty empty 0 -8 0 8 -86853
-1 -1 316 1;
#X floatatom 143 122 0 0 0 0 - - -;
#X text 121 79 hammer mass (in Kg);
#X text 66 179 strike velocity (in m/s);
#X obj 161 375 outlet;
#X obj 280 231 outlet;
#X text 14 38 external force (in N);
#X obj 10 10 cnv 15 255 20 empty empty INERTIAL_HAMMER_CONTROLS_(object_1)
10 10 1 10 -257985 -1 0;
#X obj 61 377 outlet;
#X obj 227 164 inlet;
#X msg 161 330 1;
#X obj 269 54 inlet;
#X connect 1 0 2 0;
#X connect 2 0 15 0;
#X connect 3 0 11 0;
#X connect 4 0 3 1;
#X connect 5 0 17 0;
#X connect 6 0 4 0;
#X connect 7 0 8 0;
#X connect 8 0 12 0;
#X connect 16 0 5 0;
#X connect 17 0 3 0;
#X connect 18 0 7 0;
#X coords 0 -1 1 1 255 280 1 10 10;
#X restore 3 -39 pd hammer_controls;
#N canvas 626 124 503 367 impact_parameters 0;
#X obj 10 31 cnv 15 265 195 empty empty empty 20 12 0 14 -159720 -66577
0;
#X obj 68 322 outlet;
#X obj 10 10 cnv 15 265 20 empty empty IMPACT_PARAMETERS 10 10 1 10
-4034 -1 0;
#X floatatom 43 200 8 0 0 0 - - -;
#X floatatom 221 200 4 0 0 0 - - -;
#X floatatom 135 200 4 0 0 0 - - -;
#X obj 221 66 vsl 18 128 1e-005 1 0 1 empty empty empty 0 -8 0 8 -232256
-1 -1 6362 1;
#X obj 135 66 vsl 18 128 1 4 1 1 empty empty empty 0 -8 0 8 -211008
-1 -1 0 1;
#X obj 43 66 vsl 18 128 1 2e+012 1 1 empty empty empty 0 -8 0 8 -176832
-1 -1 7738 1;
#X text 34 32 force;
#X text 14 44 stiffness (k);
#X text 97 32 contact surface;
#X text 104 44 shape (alpha);
#X text 199 32 dissipation;
#X text 202 44 coeff (mu);
#X obj 88 251 t b f;
#X obj 171 260 t b f;
#X obj 233 234 inlet;
#X obj 233 260 t b f;
#X obj 171 234 _actx;
#X obj 68 300 pack 1e+006 1 500000 0.1;
#X connect 3 0 19 0;
#X connect 3 0 20 0;
#X connect 4 0 19 1;
#X connect 5 0 15 0;
#X connect 6 0 4 0;
#X connect 7 0 5 0;
#X connect 8 0 3 0;
#X connect 15 0 20 0;
#X connect 15 1 20 1;
#X connect 16 0 20 0;
#X connect 16 1 20 2;
#X connect 17 0 18 0;
#X connect 18 0 20 0;
#X connect 18 1 20 3;
#X connect 19 0 16 0;
#X connect 20 0 1 0;
#X coords 0 -1 1 1 265 215 1 10 10;
#X restore 310 58 pd impact_parameters;
#N canvas 9 48 617 626 resonator_controls 0;
#X obj 10 81 cnv 15 600 440 empty empty empty 20 12 0 14 -172032 -66577
0;
#X obj 10 60 cnv 15 600 20 empty empty RESONATOR_CONTROLS_(modal_object_2)
10 10 1 10 -4032 -1 0;
#X obj 47 423 vsl 16 35 0.1 10 1 1 empty empty gain_fact -18 -12 0
10 -260097 -1 -1 2549 1;
#X floatatom 47 465 4 0 0 0 - - -;
#X obj 47 264 vsl 16 35 0.12 8 0 1 empty empty decay_fact -24 -12 0
10 -4160 -1 -1 1980 1;
#X floatatom 47 306 4 0 0 0 - - -;
#X obj 47 105 vsl 16 35 0.12 8 0 1 empty empty freq_fact -18 -12 0
10 -257985 -1 -1 0 1;
#X floatatom 47 147 4 0 0 0 - - -;
#X text 331 376 @ pickup 0;
#X floatatom 241 495 4 0 0 0 - - -;
#X floatatom 241 336 5 0 0 0 - - -;
#X floatatom 165 335 5 0 0 0 - - -;
#X floatatom 165 495 4 0 0 0 - - -;
#X floatatom 241 177 6 0 0 0 - - -;
#X floatatom 165 177 6 0 0 0 - - -;
#X obj 165 105 vsl 15 64 20 20000 1 1 empty empty freq_mode0 -24 -12
0 10 -176107 -1 -1 2347 1;
#X obj 241 105 vsl 15 64 20 20000 1 1 empty empty freq_mode1 -24 -12
0 10 -178880 -1 -1 4200 1;
#X obj 241 423 vsl 15 64 0 140 0 1 empty empty gain_mode1 -22 -12 0
10 -178880 -1 -1 3830 1;
#X obj 165 264 vsl 15 64 0.0001 1 1 1 empty empty decay_mode0 -24 -12
0 10 -176107 -1 -1 0 1;
#X obj 165 423 vsl 15 64 0 140 0 1 empty empty gain_mode0 -22 -12 0
10 -176107 -1 -1 5200 1;
#X obj 241 264 vsl 15 64 0.0001 1 1 1 empty empty decay_mode1 -24 -12
0 10 -178880 -1 -1 0 1;
#X obj 180 602 outlet;
#X obj 223 602 outlet;
#X obj 266 602 outlet;
#X obj 309 602 outlet;
#X floatatom 394 177 6 0 0 0 - - -;
#X floatatom 318 177 6 0 0 0 - - -;
#X obj 318 105 vsl 15 64 20 20000 1 1 empty empty freq_mode2 -24 -12
0 10 -176107 -1 -1 4400 1;
#X obj 394 105 vsl 15 64 20 20000 1 1 empty empty freq_mode3 -24 -12
0 10 -178880 -1 -1 4600 1;
#X floatatom 548 177 6 0 0 0 - - -;
#X floatatom 472 177 6 0 0 0 - - -;
#X obj 472 105 vsl 15 64 20 20000 1 1 empty empty freq_mode4 -24 -12
0 10 -176107 -1 -1 5100 1;
#X obj 548 105 vsl 15 64 20 20000 1 1 empty empty freq_mode5 -24 -12
0 10 -178880 -1 -1 5400 1;
#X floatatom 394 336 5 0 0 0 - - -;
#X floatatom 318 335 5 0 0 0 - - -;
#X obj 318 264 vsl 15 64 0.0001 1 1 1 empty empty decay_mode2 -24 -12
0 10 -176107 -1 -1 0 1;
#X obj 394 264 vsl 15 64 0.0001 1 1 1 empty empty decay_mode3 -24 -12
0 10 -178880 -1 -1 0 1;
#X floatatom 548 336 5 0 0 0 - - -;
#X floatatom 472 335 5 0 0 0 - - -;
#X obj 472 264 vsl 15 64 0.0001 1 1 1 empty empty decay_mode4 -24 -12
0 10 -176107 -1 -1 0 1;
#X obj 548 264 vsl 15 64 0.0001 1 1 1 empty empty decay_mode5 -24 -12
0 10 -178880 -1 -1 0 1;
#X floatatom 393 495 4 0 0 0 - - -;
#X floatatom 317 495 4 0 0 0 - - -;
#X obj 393 423 vsl 15 64 0 140 0 1 empty empty gain_mode3 -22 -12 0
10 -178880 -1 -1 0 1;
#X obj 317 423 vsl 15 64 0 140 0 1 empty empty gain_mode2 -22 -12 0
10 -176107 -1 -1 0 1;
#X floatatom 548 495 4 0 0 0 - - -;
#X floatatom 472 495 4 0 0 0 - - -;
#X obj 548 423 vsl 15 64 0 140 0 1 empty empty gain_mode5 -22 -12 0
10 -178880 -1 -1 0 1;
#X obj 472 423 vsl 15 64 0 140 0 1 empty empty gain_mode4 -22 -12 0
10 -176107 -1 -1 0 1;
#N canvas 195 81 1047 402 modal_object_parameters 0;
#X obj 147 198 t b l;
#X obj 188 135 t b f;
#X obj 55 78 t b f;
#X obj 725 200 t b l;
#X obj 780 137 t b f;
#X obj 725 84 dbtorms;
#X obj 780 52 dbtorms;
#X obj 725 137 t b f;
#X obj 96 78 t b f;
#X obj 55 27 inlet;
#X obj 96 27 inlet;
#X obj 147 27 inlet;
#X obj 188 27 inlet;
#X obj 438 200 t b l;
#X obj 479 137 t b f;
#X obj 438 29 inlet;
#X obj 479 29 inlet;
#X obj 725 29 inlet;
#X obj 780 29 inlet;
#X obj 16 379 outlet;
#X obj 174 379 outlet;
#X obj 463 381 outlet;
#X obj 753 379 outlet;
#X obj 14 27 inlet;
#X obj 16 324 pack 1 1 1;
#X text 218 297 This subpatch packs the parameters for a modal object
in appropriate lists and assures immedeate actualization through right-ordered
retriggering. Static parameter values can be given as creation arguments
(except for the base factors \, which are set to 1 by default).;
#X obj 229 136 t b f;
#X obj 229 28 inlet;
#X obj 269 136 t b f;
#X obj 269 28 inlet;
#X obj 312 136 t b f;
#X obj 312 28 inlet;
#X obj 353 136 t b f;
#X obj 353 28 inlet;
#X text 24 4 global factors;
#X obj 520 138 t b f;
#X obj 520 30 inlet;
#X obj 560 138 t b f;
#X obj 560 30 inlet;
#X obj 603 138 t b f;
#X obj 603 30 inlet;
#X obj 644 138 t b f;
#X obj 644 30 inlet;
#X text 515 9 modes decays;
#X text 207 6 modes frequencies;
#X text 726 10 modes gains at pickup0;
#X obj 887 136 t b f;
#X obj 832 83 dbtorms;
#X obj 887 83 dbtorms;
#X obj 832 136 t b f;
#X obj 832 28 inlet;
#X obj 887 28 inlet;
#X obj 995 135 t b f;
#X obj 940 83 dbtorms;
#X obj 995 83 dbtorms;
#X obj 940 136 t b f;
#X obj 940 28 inlet;
#X obj 995 28 inlet;
#X obj 147 171 pack 200 400 800 1600 3200 6400;
#X obj 438 173 pack 0.1 0.1 0.1 0.1 0.1 0.1;
#X obj 725 173 pack 0 1 1 1 1 1 1;
#X obj 790 75 inlet;
#X obj 780 103 _actx;
#X connect 0 0 24 0;
#X connect 0 1 20 0;
#X connect 1 0 58 0;
#X connect 1 1 58 1;
#X connect 2 0 24 0;
#X connect 2 1 24 1;
#X connect 3 0 24 0;
#X connect 3 1 22 0;
#X connect 4 0 60 0;
#X connect 4 1 60 2;
#X connect 5 0 7 0;
#X connect 6 0 62 0;
#X connect 7 0 60 0;
#X connect 7 1 60 1;
#X connect 8 0 24 0;
#X connect 8 1 24 2;
#X connect 9 0 2 0;
#X connect 10 0 8 0;
#X connect 11 0 58 0;
#X connect 12 0 1 0;
#X connect 13 0 24 0;
#X connect 13 1 21 0;
#X connect 14 0 59 0;
#X connect 14 1 59 1;
#X connect 15 0 59 0;
#X connect 16 0 14 0;
#X connect 17 0 5 0;
#X connect 18 0 6 0;
#X connect 23 0 24 0;
#X connect 24 0 19 0;
#X connect 26 0 58 0;
#X connect 26 1 58 2;
#X connect 27 0 26 0;
#X connect 28 0 58 0;
#X connect 28 1 58 3;
#X connect 29 0 28 0;
#X connect 30 0 58 0;
#X connect 30 1 58 4;
#X connect 31 0 30 0;
#X connect 32 0 58 0;
#X connect 32 1 58 5;
#X connect 33 0 32 0;
#X connect 35 0 59 0;
#X connect 35 1 59 2;
#X connect 36 0 35 0;
#X connect 37 0 59 0;
#X connect 37 1 59 3;
#X connect 38 0 37 0;
#X connect 39 0 59 0;
#X connect 39 1 59 4;
#X connect 40 0 39 0;
#X connect 41 0 59 0;
#X connect 41 1 59 5;
#X connect 42 0 41 0;
#X connect 46 0 60 0;
#X connect 46 1 60 4;
#X connect 47 0 49 0;
#X connect 48 0 46 0;
#X connect 49 0 60 0;
#X connect 49 1 60 3;
#X connect 50 0 47 0;
#X connect 51 0 48 0;
#X connect 52 0 60 0;
#X connect 52 1 60 6;
#X connect 53 0 55 0;
#X connect 54 0 52 0;
#X connect 55 0 60 0;
#X connect 55 1 60 5;
#X connect 56 0 53 0;
#X connect 57 0 54 0;
#X connect 58 0 0 0;
#X connect 59 0 13 0;
#X connect 60 0 3 0;
#X connect 61 0 62 1;
#X connect 62 0 4 0;
#X restore 180 562 pd modal_object_parameters;
#X obj 47 33 inlet;
#X obj 165 222 inlet;
#X obj 241 222 inlet;
#X connect 2 0 3 0;
#X connect 3 0 49 2;
#X connect 4 0 5 0;
#X connect 5 0 49 1;
#X connect 6 0 7 0;
#X connect 7 0 49 0;
#X connect 9 0 49 16;
#X connect 10 0 49 10;
#X connect 11 0 49 9;
#X connect 12 0 49 15;
#X connect 13 0 49 4;
#X connect 14 0 49 3;
#X connect 15 0 14 0;
#X connect 16 0 13 0;
#X connect 17 0 9 0;
#X connect 18 0 11 0;
#X connect 19 0 12 0;
#X connect 20 0 10 0;
#X connect 25 0 49 6;
#X connect 26 0 49 5;
#X connect 27 0 26 0;
#X connect 28 0 25 0;
#X connect 29 0 49 8;
#X connect 30 0 49 7;
#X connect 31 0 30 0;
#X connect 32 0 29 0;
#X connect 33 0 49 12;
#X connect 34 0 49 11;
#X connect 35 0 34 0;
#X connect 36 0 33 0;
#X connect 37 0 49 14;
#X connect 38 0 49 13;
#X connect 39 0 38 0;
#X connect 40 0 37 0;
#X connect 41 0 49 19;
#X connect 42 0 49 18;
#X connect 43 0 41 0;
#X connect 44 0 42 0;
#X connect 45 0 49 21;
#X connect 46 0 49 20;
#X connect 47 0 45 0;
#X connect 48 0 46 0;
#X connect 49 0 21 0;
#X connect 49 1 22 0;
#X connect 49 2 23 0;
#X connect 49 3 24 0;
#X connect 50 0 6 0;
#X connect 51 0 18 0;
#X connect 52 0 20 0;
#X coords 0 -1 1 1 600 460 1 10 60;
#X restore 623 -60 pd resonator_controls;
#X obj 261 470 outlet~;
#X obj 585 -60 inlet;
#X obj 260 448 *~ 10000;
#X obj 3 -60 inlet;
#X obj 936 -59 inlet;
#X obj 611 451 outlet~;
#X obj 251 -60 inlet;
#X obj 260 400 impact_inertialb_modalb~ 1e+007 1.5 0 0.1 6 2 d 1 1
1 1 200 400 800 1600 3200 6400 0.1 0.1 0.1 0.1 0.1 0.1 0 1 1 1 1 1
1 1 1 1 1 1 1;
#X obj 1226 -60 inlet;
#X connect 2 0 12 0;
#X connect 2 1 12 3;
#X connect 2 2 3 0;
#X connect 3 0 12 4;
#X connect 4 0 12 5;
#X connect 4 1 12 6;
#X connect 4 2 12 7;
#X connect 4 3 12 8;
#X connect 6 0 4 0;
#X connect 7 0 5 0;
#X connect 8 0 2 0;
#X connect 9 0 4 1;
#X connect 11 0 2 1;
#X connect 12 0 7 0;
#X connect 12 1 10 0;
#X connect 13 0 4 2;
