#N canvas 419 90 456 306 12;
#X obj 127 38 receive #keyname;
#X obj 127 65 unpack f s;
#X obj 127 119 symbol;
#X obj 127 92 select 1;
#X obj 127 196 outlet;
#X obj 127 147 select \$1;
#X obj 203 196 outlet;
#X obj 280 38 inlet;
#X text 22 227 A bang is sent on the left outlet \, whenever the key
specified as creation argument is pressed. Messages at the inlet are
passed through.;
#X connect 0 0 1 0;
#X connect 1 0 3 0;
#X connect 1 1 2 1;
#X connect 2 0 5 0;
#X connect 3 0 2 0;
#X connect 5 0 4 0;
#X connect 5 1 6 0;
#X connect 7 0 4 0;
