#N canvas 116 293 1511 570 10;
#X obj 207 395 t b;
#X obj 207 342 f;
#X obj 207 420 f;
#X msg 321 419 0;
#X obj 207 372 moses 1;
#X obj 321 391 t b f;
#X obj 287 334 moses 1;
#X obj 720 92 dbtorms;
#X obj 769 -62 inlet~;
#X msg 167 233 \; pd dsp 1;
#X obj 720 150 line~;
#X obj 754 177 *~;
#X obj 720 122 pack 0 50;
#X floatatom 199 132 3 0 100 2 R_toe - -;
#X obj 240 133 bng 15 250 50 0 empty empty mute 0 -7 0 12 -262144 -1
-1;
#X obj 853 -63 inlet~;
#X obj 839 179 *~;
#X text 171 283 MUTE logic:;
#X floatatom 199 172 3 0 100 2 R_heel - -;
#X text 109 217 automatically start DSP;
#X obj 393 396 t b;
#X obj 393 343 f;
#X obj 393 421 f;
#X msg 507 420 0;
#X obj 393 373 moses 1;
#X obj 507 392 t b f;
#X obj 473 335 moses 1;
#X obj 240 173 bng 15 250 50 0 empty empty mute 0 -7 0 12 -262144 -1
-1;
#X text 428 120 make a ramp to avoid clicks or zipper noise -->;
#X text 500 90 convert from dB to linear units -->;
#X obj 1025 92 dbtorms;
#X obj 1025 150 line~;
#X obj 948 180 *~;
#X obj 1025 122 pack 0 50;
#X obj 1038 178 *~;
#X obj 152 -68 inlet;
#X obj 151 -10 sel 0;
#X obj 152 -39 t f f;
#X obj 151 16 bng 15 250 50 0 empty empty empty 17 7 0 10 -262144 -1
-1;
#X obj 183 16 bng 15 250 50 0 empty empty empty 17 7 0 10 -262144 -1
-1;
#X text 196 -67 1 mute \, 0 unmute;
#X obj 963 -63 inlet~;
#X obj 1058 -63 inlet~;
#X text 913 -95 INPUTS;
#X text 772 -79 L toe;
#X text 853 -80 L heel;
#X text 966 -79 R toe;
#X text 1059 -79 R heel;
#X obj 920 92 dbtorms;
#X obj 920 150 line~;
#X obj 920 122 pack 0 50;
#X obj 818 92 dbtorms;
#X obj 818 150 line~;
#X obj 818 122 pack 0 50;
#X floatatom 141 133 3 0 100 2 L_toe - -;
#X obj 103 134 bng 15 250 50 0 empty empty mute 0 -7 0 12 -262144 -1
-1;
#X floatatom 141 172 3 0 100 2 L_heel - -;
#X obj 103 172 bng 15 250 50 0 empty empty mute 0 -7 0 12 -262144 -1
-1;
#X obj -178 392 t b;
#X obj -178 339 f;
#X obj -178 417 f;
#X msg -64 416 0;
#X obj -178 369 moses 1;
#X obj -64 388 t b f;
#X obj -98 331 moses 1;
#X text -328 366 test if less than 1 -->;
#X text -351 391 if true convert to bang -->;
#X text 10 306 MUTE logic:;
#X text -375 416 previous nonzero master-lvl -->;
#X text -327 327 recall previous;
#X text -328 339 value of master-lvl -->;
#X obj 8 393 t b;
#X obj 8 340 f;
#X obj 8 418 f;
#X msg 122 417 0;
#X obj 8 370 moses 1;
#X obj 122 389 t b f;
#X obj 88 332 moses 1;
#X obj -36 58 r \$0-master-lvl-\$1;
#X obj 84 59 r \$0-master-lvl-\$2;
#X obj 209 59 r \$0-master-lvl-\$3;
#X obj 329 59 r \$0-master-lvl-\$4;
#X obj -31 160 s \$0-master-out-\$1;
#X obj -17 199 s \$0-master-out-\$2;
#X obj 274 154 s \$0-master-out-\$3;
#X obj 275 201 s \$0-master-out-\$4;
#X obj -98 304 r \$0-master-out-\$1;
#X obj 88 305 r \$0-master-out-\$2;
#X obj 287 307 r \$0-master-out-\$3;
#X obj 473 308 r \$0-master-out-\$4;
#X obj 660 66 r \$0-master-out-\$1;
#X obj 789 66 r \$0-master-out-\$2;
#X obj 911 66 r \$0-master-out-\$3;
#X obj 1029 66 r \$0-master-out-\$4;
#X obj -178 443 s \$0-master-lvl-\$1;
#X obj 8 444 s \$0-master-lvl-\$2;
#X obj 207 446 s \$0-master-lvl-\$3;
#X obj 393 447 s \$0-master-lvl-\$4;
#X obj 747 202 outlet~;
#X obj 834 203 outlet~;
#X obj 938 206 outlet~;
#X obj 1035 206 outlet~;
#X obj 354 -67 inlet;
#X obj 417 -66 inlet;
#X text 349 -85 lvl toe;
#X text 412 -86 lvl heel;
#X connect 0 0 2 0;
#X connect 1 0 4 0;
#X connect 2 0 96 0;
#X connect 3 0 96 0;
#X connect 4 0 0 0;
#X connect 4 1 5 0;
#X connect 5 0 3 0;
#X connect 6 1 2 1;
#X connect 7 0 12 0;
#X connect 8 0 11 1;
#X connect 10 0 11 0;
#X connect 11 0 98 0;
#X connect 12 0 10 0;
#X connect 13 0 9 0;
#X connect 13 0 84 0;
#X connect 14 0 1 0;
#X connect 15 0 16 1;
#X connect 16 0 99 0;
#X connect 18 0 9 0;
#X connect 18 0 85 0;
#X connect 20 0 22 0;
#X connect 21 0 24 0;
#X connect 22 0 97 0;
#X connect 23 0 97 0;
#X connect 24 0 20 0;
#X connect 24 1 25 0;
#X connect 25 0 23 0;
#X connect 26 1 22 1;
#X connect 27 0 21 0;
#X connect 30 0 33 0;
#X connect 31 0 34 0;
#X connect 32 0 100 0;
#X connect 33 0 31 0;
#X connect 34 0 101 0;
#X connect 35 0 37 0;
#X connect 36 0 38 0;
#X connect 36 1 39 0;
#X connect 37 0 36 1;
#X connect 37 1 36 0;
#X connect 39 0 14 0;
#X connect 39 0 27 0;
#X connect 39 0 55 0;
#X connect 39 0 57 0;
#X connect 41 0 32 1;
#X connect 42 0 34 1;
#X connect 48 0 50 0;
#X connect 49 0 32 0;
#X connect 50 0 49 0;
#X connect 51 0 53 0;
#X connect 52 0 16 0;
#X connect 53 0 52 0;
#X connect 54 0 9 0;
#X connect 54 0 82 0;
#X connect 55 0 59 0;
#X connect 56 0 9 0;
#X connect 56 0 83 0;
#X connect 57 0 72 0;
#X connect 58 0 60 0;
#X connect 59 0 62 0;
#X connect 60 0 94 0;
#X connect 61 0 94 0;
#X connect 62 0 58 0;
#X connect 62 1 63 0;
#X connect 63 0 61 0;
#X connect 64 1 60 1;
#X connect 71 0 73 0;
#X connect 72 0 75 0;
#X connect 73 0 95 0;
#X connect 74 0 95 0;
#X connect 75 0 71 0;
#X connect 75 1 76 0;
#X connect 76 0 74 0;
#X connect 77 1 73 1;
#X connect 78 0 54 0;
#X connect 79 0 56 0;
#X connect 80 0 13 0;
#X connect 81 0 18 0;
#X connect 86 0 59 1;
#X connect 86 0 64 0;
#X connect 87 0 72 1;
#X connect 87 0 77 0;
#X connect 88 0 1 1;
#X connect 88 0 6 0;
#X connect 89 0 21 1;
#X connect 89 0 26 0;
#X connect 90 0 7 0;
#X connect 91 0 51 0;
#X connect 92 0 48 0;
#X connect 93 0 30 0;
#X connect 102 0 54 0;
#X connect 102 0 13 0;
#X connect 103 0 56 0;
#X connect 103 0 18 0;
#X coords 0 -1 1 1 170 95 1 100 100;
