#N canvas 474 270 497 422 10;
#X floatatom 277 58 5 0 0 0 - - -;
#X obj 277 34 inlet;
#X obj 153 39 inlet~;
#X obj 290 352 outlet~;
#X text 261 17 cut frequency;
#X text 55 23 signal to be low-passed;
#X obj 290 161 lop~ \$1;
#X obj 290 185 lop~ \$1;
#X obj 290 207 lop~ \$1;
#X obj 290 230 lop~ \$1;
#X obj 290 253 lop~ \$1;
#X obj 290 277 lop~ \$1;
#X obj 290 299 lop~ \$1;
#X obj 290 322 lop~ \$1;
#X connect 0 0 6 1;
#X connect 0 0 7 1;
#X connect 0 0 8 1;
#X connect 0 0 9 1;
#X connect 0 0 10 1;
#X connect 0 0 11 1;
#X connect 0 0 12 1;
#X connect 0 0 13 1;
#X connect 1 0 0 0;
#X connect 2 0 6 0;
#X connect 6 0 7 0;
#X connect 7 0 8 0;
#X connect 8 0 9 0;
#X connect 9 0 10 0;
#X connect 10 0 11 0;
#X connect 11 0 12 0;
#X connect 12 0 13 0;
#X connect 13 0 3 0;
