#N canvas 165 51 315 403 10;
#X obj 123 114 vradio 15 1 1 5 empty empty empty 0 -8 0 10 -262144
-1 -1 4;
#X obj 123 246 gate 5;
#X obj 123 220 t b f;
#X obj 123 196 + 1;
#X obj 95 270 bng 15 250 50 0 empty empty empty 17 7 0 10 -262144 -1
-1;
#X obj 117 270 bng 15 250 50 0 empty empty empty 17 7 0 10 -262144
-1 -1;
#X obj 139 270 bng 15 250 50 0 empty empty empty 17 7 0 10 -262144
-1 -1;
#X obj 160 270 bng 15 250 50 0 empty empty empty 17 7 0 10 -262144
-1 -1;
#X obj 182 270 bng 15 250 50 0 empty empty empty 17 7 0 10 -262144
-1 -1;
#X msg 79 289 12;
#X floatatom 141 144 3 0 0 0 - - -;
#X floatatom 40 118 5 0 0 0 - - -;
#X msg 40 381 0;
#X obj 40 94 inlet;
#X obj 264 349 outlet;
#X text 101 112 +12;
#X obj 40 358 moses 1;
#X obj 123 55 sel 0;
#X text 113 173 0;
#X obj 192 95 inlet;
#X msg 110 289 9;
#X msg 139 289 6;
#X msg 167 289 3;
#X msg 196 289 0;
#X msg 123 80 4;
#X text 107 127 +9;
#X text 107 142 +6;
#X text 107 157 +3;
#X obj 40 335 _act+;
#X connect 0 0 3 0;
#X connect 1 0 4 0;
#X connect 1 1 5 0;
#X connect 1 2 6 0;
#X connect 1 3 7 0;
#X connect 1 4 8 0;
#X connect 2 0 1 1;
#X connect 2 1 1 0;
#X connect 3 0 2 0;
#X connect 4 0 9 0;
#X connect 5 0 20 0;
#X connect 6 0 21 0;
#X connect 7 0 22 0;
#X connect 8 0 23 0;
#X connect 9 0 28 1;
#X connect 10 0 14 0;
#X connect 11 0 17 0;
#X connect 11 0 28 0;
#X connect 12 0 10 0;
#X connect 13 0 11 0;
#X connect 16 0 12 0;
#X connect 16 1 10 0;
#X connect 17 0 24 0;
#X connect 19 0 0 0;
#X connect 20 0 28 1;
#X connect 21 0 28 1;
#X connect 22 0 28 1;
#X connect 23 0 28 1;
#X connect 24 0 0 0;
#X connect 28 0 16 0;
#X coords 0 -1 1 1 65 90 1 100 100;
