#N canvas 65 247 934 416 10;
#X obj 160 176 t b l;
#X obj 201 113 t b f;
#X obj 68 56 t b f;
#X obj 339 176 t b l;
#X obj 394 113 t b f;
#X obj 339 60 dbtorms;
#X obj 394 60 dbtorms;
#X obj 339 113 t b f;
#X obj 109 56 t b f;
#X obj 68 5 inlet;
#X obj 109 5 inlet;
#X obj 160 5 inlet;
#X obj 201 5 inlet;
#X obj 246 176 t b l;
#X obj 287 113 t b f;
#X obj 246 5 inlet;
#X obj 287 5 inlet;
#X obj 339 5 inlet;
#X obj 394 5 inlet;
#X obj 483 176 t b l;
#X obj 538 113 t b f;
#X obj 483 60 dbtorms;
#X obj 538 60 dbtorms;
#X obj 483 113 t b f;
#X obj 483 5 inlet;
#X obj 538 5 inlet;
#X obj 575 5 inlet;
#X obj 27 388 outlet;
#X obj 190 388 outlet;
#X obj 276 388 outlet;
#X obj 369 388 outlet;
#X obj 513 388 outlet;
#X obj 27 5 inlet;
#X obj 27 333 pack 1 1 1;
#X obj 160 149 pack \$1 \$2;
#X obj 246 149 pack \$3 \$4;
#X obj 339 149 pack 0 \$5 \$6;
#X obj 483 149 pack 1 \$7 \$8;
#X obj 628 176 t b l;
#X obj 683 113 t b f;
#X obj 628 60 dbtorms;
#X obj 683 60 dbtorms;
#X obj 628 113 t b f;
#X obj 628 5 inlet;
#X obj 683 5 inlet;
#X obj 720 5 inlet;
#X obj 658 388 outlet;
#X obj 628 149 pack 2 \$9 \$10;
#X obj 431 5 inlet;
#X text 444 24 *;
#X text 587 24 *;
#X text 738 24 *;
#X text 252 304 * At these inlets an additional factor for the levels
can be set. This is useful e.g. to invert the phase of a mode at a
pickup-point (by setting a factor of -1) or to statistically vary the
level within a range given at the previous inlet.;
#X text 432 198 This subpatch packs the parameters for a modal object
of two modes \, with three interaction points \, in appropriate lists
and assures immedeate actualisation through right-ordered retriggering.
Static parameter values can be given as creation arguments (except
for the base factors \, which are set to 1 by default).;
#X obj 394 88 _actx 1;
#X obj 538 88 _actx 1;
#X obj 683 88 _actx 1;
#X connect 0 0 33 0;
#X connect 0 1 28 0;
#X connect 1 0 34 0;
#X connect 1 1 34 1;
#X connect 2 0 33 0;
#X connect 2 1 33 1;
#X connect 3 0 33 0;
#X connect 3 1 30 0;
#X connect 4 0 36 0;
#X connect 4 1 36 2;
#X connect 5 0 7 0;
#X connect 6 0 54 0;
#X connect 7 0 36 0;
#X connect 7 1 36 1;
#X connect 8 0 33 0;
#X connect 8 1 33 2;
#X connect 9 0 2 0;
#X connect 10 0 8 0;
#X connect 11 0 34 0;
#X connect 12 0 1 0;
#X connect 13 0 33 0;
#X connect 13 1 29 0;
#X connect 14 0 35 0;
#X connect 14 1 35 1;
#X connect 15 0 35 0;
#X connect 16 0 14 0;
#X connect 17 0 5 0;
#X connect 18 0 6 0;
#X connect 19 0 33 0;
#X connect 19 1 31 0;
#X connect 20 0 37 0;
#X connect 20 1 37 2;
#X connect 21 0 23 0;
#X connect 22 0 55 0;
#X connect 23 0 37 0;
#X connect 23 1 37 1;
#X connect 24 0 21 0;
#X connect 25 0 22 0;
#X connect 26 0 55 1;
#X connect 32 0 33 0;
#X connect 33 0 27 0;
#X connect 34 0 0 0;
#X connect 35 0 13 0;
#X connect 36 0 3 0;
#X connect 37 0 19 0;
#X connect 38 0 33 0;
#X connect 38 1 46 0;
#X connect 39 0 47 0;
#X connect 39 1 47 2;
#X connect 40 0 42 0;
#X connect 41 0 56 0;
#X connect 42 0 47 0;
#X connect 42 1 47 1;
#X connect 43 0 40 0;
#X connect 44 0 41 0;
#X connect 45 0 56 1;
#X connect 47 0 38 0;
#X connect 48 0 54 1;
#X connect 54 0 4 0;
#X connect 55 0 20 0;
#X connect 56 0 39 0;
