#N canvas 11 229 1104 453 10;
#X obj 137 176 t b l;
#X obj 178 113 t b f;
#X obj 45 56 t b f;
#X obj 403 176 t b l;
#X obj 458 113 t b f;
#X obj 403 60 dbtorms;
#X obj 458 60 dbtorms;
#X obj 403 113 t b f;
#X obj 86 56 t b f;
#X obj 45 5 inlet;
#X obj 86 5 inlet;
#X obj 137 5 inlet;
#X obj 178 5 inlet;
#X obj 403 5 inlet;
#X obj 458 5 inlet;
#X obj 571 176 t b l;
#X obj 626 113 t b f;
#X obj 571 60 dbtorms;
#X obj 626 60 dbtorms;
#X obj 571 113 t b f;
#X obj 571 5 inlet;
#X obj 626 5 inlet;
#X obj 663 5 inlet;
#X obj 4 388 outlet;
#X obj 167 388 outlet;
#X obj 433 388 outlet;
#X obj 601 388 outlet;
#X obj 4 5 inlet;
#X obj 4 333 pack 1 1 1;
#X obj 219 113 t b f;
#X obj 219 5 inlet;
#X obj 137 149 pack \$1 \$2 \$3;
#X obj 270 176 t b l;
#X obj 311 113 t b f;
#X obj 270 5 inlet;
#X obj 311 5 inlet;
#X obj 300 388 outlet;
#X obj 352 113 t b f;
#X obj 352 5 inlet;
#X obj 513 113 t b f;
#X obj 513 60 dbtorms;
#X obj 513 5 inlet;
#X obj 704 113 t b f;
#X obj 704 60 dbtorms;
#X obj 704 5 inlet;
#X obj 741 5 inlet;
#X obj 270 149 pack \$4 \$5 \$6;
#X obj 403 149 pack 0 \$7 \$8 \$9;
#X obj 571 149 pack 1 \$10 \$11 \$12;
#X obj 626 88 _actx 1;
#X obj 704 88 _actx 1;
#X connect 0 0 28 0;
#X connect 0 1 24 0;
#X connect 1 0 31 0;
#X connect 1 1 31 1;
#X connect 2 0 28 0;
#X connect 2 1 28 1;
#X connect 3 0 28 0;
#X connect 3 1 25 0;
#X connect 4 0 47 0;
#X connect 4 1 47 2;
#X connect 5 0 7 0;
#X connect 6 0 4 0;
#X connect 7 0 47 0;
#X connect 7 1 47 1;
#X connect 8 0 28 0;
#X connect 8 1 28 2;
#X connect 9 0 2 0;
#X connect 10 0 8 0;
#X connect 11 0 31 0;
#X connect 12 0 1 0;
#X connect 13 0 5 0;
#X connect 14 0 6 0;
#X connect 15 0 28 0;
#X connect 15 1 26 0;
#X connect 16 0 48 0;
#X connect 16 1 48 2;
#X connect 17 0 19 0;
#X connect 18 0 49 0;
#X connect 19 0 48 0;
#X connect 19 1 48 1;
#X connect 20 0 17 0;
#X connect 21 0 18 0;
#X connect 22 0 49 1;
#X connect 27 0 28 0;
#X connect 28 0 23 0;
#X connect 29 0 31 0;
#X connect 29 1 31 2;
#X connect 30 0 29 0;
#X connect 31 0 0 0;
#X connect 32 0 28 0;
#X connect 32 1 36 0;
#X connect 33 0 46 0;
#X connect 33 1 46 1;
#X connect 34 0 46 0;
#X connect 35 0 33 0;
#X connect 37 0 46 0;
#X connect 37 1 46 2;
#X connect 38 0 37 0;
#X connect 39 0 47 0;
#X connect 39 1 47 3;
#X connect 40 0 39 0;
#X connect 41 0 40 0;
#X connect 42 0 48 0;
#X connect 42 1 48 3;
#X connect 43 0 50 0;
#X connect 44 0 43 0;
#X connect 45 0 50 1;
#X connect 46 0 32 0;
#X connect 47 0 3 0;
#X connect 48 0 15 0;
#X connect 49 0 16 0;
#X connect 50 0 42 0;
