#N canvas 5 129 1358 414 10;
#X obj 158 207 t b l;
#X obj 199 144 t b f;
#X obj 66 87 t b f;
#X obj 736 209 t b l;
#X obj 791 146 t b f;
#X obj 736 93 dbtorms;
#X obj 791 93 dbtorms;
#X obj 736 146 t b f;
#X obj 107 87 t b f;
#X obj 66 36 inlet;
#X obj 107 36 inlet;
#X obj 158 36 inlet;
#X obj 199 36 inlet;
#X obj 449 209 t b l;
#X obj 490 146 t b f;
#X obj 449 38 inlet;
#X obj 490 38 inlet;
#X obj 736 38 inlet;
#X obj 791 38 inlet;
#X obj 27 388 outlet;
#X obj 185 388 outlet;
#X obj 474 390 outlet;
#X obj 764 388 outlet;
#X obj 1119 390 outlet;
#X obj 25 36 inlet;
#X obj 27 333 pack 1 1 1;
#X text 229 306 This subpatch packs the parameters for a modal object
in appropriate lists and assures immedeate actualization through right-ordered
retriggering. Static parameter values can be given as creation arguments
(except for the base factors \, which are set to 1 by default).;
#X obj 158 180 pack \$1 \$2 \$3 \$4 \$5 \$6;
#X obj 240 145 t b f;
#X obj 240 37 inlet;
#X obj 280 145 t b f;
#X obj 280 37 inlet;
#X obj 323 145 t b f;
#X obj 323 37 inlet;
#X obj 364 145 t b f;
#X obj 364 37 inlet;
#X text 35 13 global factors;
#X obj 531 147 t b f;
#X obj 531 39 inlet;
#X obj 571 147 t b f;
#X obj 571 39 inlet;
#X obj 614 147 t b f;
#X obj 614 39 inlet;
#X obj 655 147 t b f;
#X obj 655 39 inlet;
#X obj 449 182 pack \$7 \$8 \$9 \$10 \$11 \$12;
#X text 526 18 modes decays;
#X text 218 15 modes frequencies;
#X text 737 19 modes gains at pickup0;
#X obj 898 145 t b f;
#X obj 843 92 dbtorms;
#X obj 898 92 dbtorms;
#X obj 843 145 t b f;
#X obj 843 37 inlet;
#X obj 898 37 inlet;
#X obj 1006 144 t b f;
#X obj 951 92 dbtorms;
#X obj 1006 92 dbtorms;
#X obj 951 145 t b f;
#X obj 951 37 inlet;
#X obj 1006 37 inlet;
#X obj 736 182 pack 0 \$13 \$14 \$15 \$16 \$17 \$18;
#X obj 1094 206 t b l;
#X obj 1149 143 t b f;
#X obj 1094 90 dbtorms;
#X obj 1149 90 dbtorms;
#X obj 1094 143 t b f;
#X obj 1094 35 inlet;
#X obj 1149 35 inlet;
#X obj 1256 142 t b f;
#X obj 1201 89 dbtorms;
#X obj 1256 89 dbtorms;
#X obj 1201 142 t b f;
#X obj 1201 34 inlet;
#X obj 1256 34 inlet;
#X obj 1364 141 t b f;
#X obj 1309 89 dbtorms;
#X obj 1364 89 dbtorms;
#X obj 1309 142 t b f;
#X obj 1309 34 inlet;
#X obj 1364 34 inlet;
#X obj 1094 179 pack 1 \$19 \$20 \$21 \$22 \$23 \$24;
#X text 1093 18 modes gains at pickup1;
#X connect 0 0 25 0;
#X connect 0 1 20 0;
#X connect 1 0 27 0;
#X connect 1 1 27 1;
#X connect 2 0 25 0;
#X connect 2 1 25 1;
#X connect 3 0 25 0;
#X connect 3 1 22 0;
#X connect 4 0 61 0;
#X connect 4 1 61 2;
#X connect 5 0 7 0;
#X connect 6 0 4 0;
#X connect 7 0 61 0;
#X connect 7 1 61 1;
#X connect 8 0 25 0;
#X connect 8 1 25 2;
#X connect 9 0 2 0;
#X connect 10 0 8 0;
#X connect 11 0 27 0;
#X connect 12 0 1 0;
#X connect 13 0 25 0;
#X connect 13 1 21 0;
#X connect 14 0 45 0;
#X connect 14 1 45 1;
#X connect 15 0 45 0;
#X connect 16 0 14 0;
#X connect 17 0 5 0;
#X connect 18 0 6 0;
#X connect 24 0 25 0;
#X connect 25 0 19 0;
#X connect 27 0 0 0;
#X connect 28 0 27 0;
#X connect 28 1 27 2;
#X connect 29 0 28 0;
#X connect 30 0 27 0;
#X connect 30 1 27 3;
#X connect 31 0 30 0;
#X connect 32 0 27 0;
#X connect 32 1 27 4;
#X connect 33 0 32 0;
#X connect 34 0 27 0;
#X connect 34 1 27 5;
#X connect 35 0 34 0;
#X connect 37 0 45 0;
#X connect 37 1 45 2;
#X connect 38 0 37 0;
#X connect 39 0 45 0;
#X connect 39 1 45 3;
#X connect 40 0 39 0;
#X connect 41 0 45 0;
#X connect 41 1 45 4;
#X connect 42 0 41 0;
#X connect 43 0 45 0;
#X connect 43 1 45 5;
#X connect 44 0 43 0;
#X connect 45 0 13 0;
#X connect 49 0 61 0;
#X connect 49 1 61 4;
#X connect 50 0 52 0;
#X connect 51 0 49 0;
#X connect 52 0 61 0;
#X connect 52 1 61 3;
#X connect 53 0 50 0;
#X connect 54 0 51 0;
#X connect 55 0 61 0;
#X connect 55 1 61 6;
#X connect 56 0 58 0;
#X connect 57 0 55 0;
#X connect 58 0 61 0;
#X connect 58 1 61 5;
#X connect 59 0 56 0;
#X connect 60 0 57 0;
#X connect 61 0 3 0;
#X connect 62 0 25 0;
#X connect 62 1 23 0;
#X connect 63 0 81 0;
#X connect 63 1 81 2;
#X connect 64 0 66 0;
#X connect 65 0 63 0;
#X connect 66 0 81 0;
#X connect 66 1 81 1;
#X connect 67 0 64 0;
#X connect 68 0 65 0;
#X connect 69 0 81 0;
#X connect 69 1 81 4;
#X connect 70 0 72 0;
#X connect 71 0 69 0;
#X connect 72 0 81 0;
#X connect 72 1 81 3;
#X connect 73 0 70 0;
#X connect 74 0 71 0;
#X connect 75 0 81 0;
#X connect 75 1 81 6;
#X connect 76 0 78 0;
#X connect 77 0 75 0;
#X connect 78 0 81 0;
#X connect 78 1 81 5;
#X connect 79 0 76 0;
#X connect 80 0 77 0;
#X connect 81 0 62 0;
