#N canvas 0 22 450 300 10;
#X obj 229 131 t b;
#X obj 229 78 f;
#X obj 229 156 f;
#X msg 295 158 0;
#X obj 229 108 moses 1;
#X obj 295 130 t b f;
#X obj 274 77 moses 1;
#X text 58 104 test if less than 1 -->;
#X text 31 132 if true convert to bang -->;
#X text 3 157 previous nonzero master-lvl -->;
#X text 59 65 recall previous;
#X text 59 79 value of master-lvl -->;
#X obj 274 41 inlet;
#X obj 229 43 inlet;
#X text 137 25 bang here mute/unmute;
#X text 272 24 current level;
#X obj 229 198 outlet;
#X text 228 214 new level;
#X connect 0 0 2 0;
#X connect 1 0 4 0;
#X connect 2 0 16 0;
#X connect 3 0 16 0;
#X connect 4 0 0 0;
#X connect 4 1 5 0;
#X connect 5 0 3 0;
#X connect 6 1 2 1;
#X connect 12 0 1 1;
#X connect 12 0 6 0;
#X connect 13 0 1 0;
