#N canvas 0 22 311 220 10;
#X obj -16 129 *~;
#X obj -16 6 inlet~;
#X obj -16 171 outlet~;
#X obj 119 72 metro 10;
#X obj 119 100 snapshot~;
#X obj 119 44 tgl 15 0 empty empty empty 17 7 0 10 -262144 -1 -1 0
1;
#X floatatom 118 129 5 0 0 0 - - -;
#X obj -16 89 z~ 1024;
#X obj 37 89 limiter~ 10;
#X connect 0 0 2 0;
#X connect 1 0 7 0;
#X connect 1 0 8 0;
#X connect 3 0 4 0;
#X connect 4 0 6 0;
#X connect 5 0 3 0;
#X connect 7 0 0 0;
#X connect 8 0 0 1;
#X connect 8 0 4 0;
