#N canvas 562 346 271 230 10;
#X obj 131 98 moses \$1;
#X obj 176 131 - \$1;
#X floatatom 171 65 5 0 0 0 - - -;
#X floatatom 204 154 5 0 0 0 - - -;
#X obj 176 179 outlet;
#X obj 131 43 inlet;
#X connect 0 1 1 0;
#X connect 1 0 4 0;
#X connect 1 0 3 0;
#X connect 5 0 2 0;
#X connect 5 0 0 0;
