#N canvas 381 297 262 172 10;
#X obj 31 28 inlet;
#X obj 31 98 /;
#X obj 31 52 t b f;
#X msg 31 75 1;
#X obj 31 122 outlet;
#X connect 0 0 2 0;
#X connect 1 0 4 0;
#X connect 2 0 3 0;
#X connect 2 1 1 1;
#X connect 3 0 1 0;
