#N canvas 140 385 1077 466 10;
#X obj 662 162 dbtorms;
#X obj 711 8 inlet~;
#X msg 50 5 \; pd dsp 1;
#X obj 662 220 line~;
#X obj 696 247 *~;
#X obj 662 192 pack 0 50;
#X obj 302 182 bng 15 250 50 0 empty empty mute 0 20 0 10 -262144 -1
-1;
#X obj 795 7 inlet~;
#X obj 781 249 *~;
#X text 204 347 MUTE logic:;
#X text 2 36 automatically start DSP;
#X text 442 160 convert from dB to linear units -->;
#X obj 967 162 dbtorms;
#X obj 967 220 line~;
#X obj 890 250 *~;
#X obj 967 192 pack 0 50;
#X obj 988 249 *~;
#X obj 182 -16 inlet;
#X obj 181 42 sel 0;
#X obj 182 13 t f f;
#X obj 181 68 bng 15 250 50 0 empty empty empty 17 7 0 10 -262144 -1
-1;
#X obj 213 68 bng 15 250 50 0 empty empty empty 17 7 0 10 -262144 -1
-1;
#X text 226 -15 1 mute \, 0 unmute;
#X obj 905 7 inlet~;
#X obj 1000 7 inlet~;
#X text 714 -9 L toe;
#X text 795 -10 L heel;
#X text 908 -9 R toe;
#X text 1001 -9 R heel;
#X obj 862 162 dbtorms;
#X obj 862 220 line~;
#X obj 862 192 pack 0 50;
#X obj 760 162 dbtorms;
#X obj 760 220 line~;
#X obj 760 192 pack 0 50;
#X obj 146 182 bng 15 250 50 0 empty empty mute 0 20 0 10 -262144 -1
-1;
#X obj 19 222 s \$2-pre-out;
#X obj 19 198 s \$1-pre-out;
#X obj 334 202 s \$3-pre-out;
#X obj 334 226 s \$4-pre-out;
#X obj 146 367 r \$2-pre-out;
#X obj 265 370 r \$3-pre-out;
#X obj 371 371 r \$4-pre-out;
#X obj 613 137 r \$1-master-out;
#X obj 722 138 r \$2-master-out;
#X obj 862 136 r \$3-master-out;
#X obj 967 136 r \$4-master-out;
#X obj 35 366 r \$1-pre-out;
#X obj 106 298 s \$2-master-out;
#X obj 117 279 s \$1-master-out;
#X obj 45 93 r \$1-lvl;
#X obj 45 113 r \$2-lvl;
#X obj 334 114 r \$4-lvl;
#X obj 334 93 r \$3-lvl;
#X obj 5 413 s \$1-lvl;
#X obj 117 412 s \$2-lvl;
#X obj 230 417 s \$3-lvl;
#X obj 345 417 s \$4-lvl;
#X obj 223 278 s \$3-master-out;
#X obj 231 297 s \$4-master-out;
#X text 840 -25 SIGNAL INPUTS;
#X obj 809 317 dac~ \$1 \$2 \$3 \$4;
#X obj 220 148 nbx 3 18 0 100 0 0 empty empty right 0 -6 0 10 -261234
-1 -1 0 256;
#X obj 173 148 nbx 3 18 0 100 0 0 empty empty left 0 -6 0 10 -66577
-262144 -1 0 256;
#X text 443 178 make a ramp \; to avoid clicks or zipper noise -->
;
#X obj 5 390 _muteLogic;
#X obj 117 390 _muteLogic;
#X obj 230 394 _muteLogic;
#X obj 345 394 _muteLogic;
#X obj 197 118 nbx 3 14 0 100 0 1 empty empty empty 0 -8 0 10 -262144
-1 -1 0 256;
#X obj 261 118 _lvloffset;
#X obj 105 118 _lvloffset;
#X connect 0 0 5 0;
#X connect 1 0 4 1;
#X connect 3 0 4 0;
#X connect 4 0 61 0;
#X connect 5 0 3 0;
#X connect 6 0 67 0;
#X connect 7 0 8 1;
#X connect 8 0 61 1;
#X connect 12 0 15 0;
#X connect 13 0 16 0;
#X connect 14 0 61 2;
#X connect 15 0 13 0;
#X connect 16 0 61 3;
#X connect 17 0 19 0;
#X connect 18 0 20 0;
#X connect 18 1 21 0;
#X connect 19 0 18 1;
#X connect 19 1 18 0;
#X connect 21 0 6 0;
#X connect 21 0 35 0;
#X connect 23 0 14 1;
#X connect 24 0 16 1;
#X connect 29 0 31 0;
#X connect 30 0 14 0;
#X connect 31 0 30 0;
#X connect 32 0 34 0;
#X connect 33 0 8 0;
#X connect 34 0 33 0;
#X connect 35 0 65 0;
#X connect 40 0 66 1;
#X connect 41 0 67 1;
#X connect 42 0 68 1;
#X connect 43 0 0 0;
#X connect 44 0 32 0;
#X connect 45 0 29 0;
#X connect 46 0 12 0;
#X connect 47 0 65 1;
#X connect 50 0 63 0;
#X connect 53 0 62 0;
#X connect 62 0 38 0;
#X connect 62 0 2 0;
#X connect 62 0 70 0;
#X connect 63 0 2 0;
#X connect 63 0 37 0;
#X connect 63 0 71 0;
#X connect 65 0 54 0;
#X connect 66 0 55 0;
#X connect 67 0 56 0;
#X connect 68 0 57 0;
#X connect 69 0 63 0;
#X connect 69 0 62 0;
#X connect 70 0 58 0;
#X connect 70 0 59 0;
#X connect 71 0 49 0;
#X connect 71 0 48 0;
#X coords 0 -1 1 1 230 110 1 100 100;
