#N canvas 322 439 1022 454 12;
#X obj 794 -53 inlet~;
#X msg 131 28 \; pd dsp 1;
#X obj 857 -53 inlet~;
#X text 312 170 MUTE logic:;
#X obj 794 -31 hip~ 3;
#X obj 856 -31 hip~ 3;
#X floatatom 20 21 3 0 100 0 dB - -;
#X text 92 7 automatically start DSP;
#X text 815 -73 stereo in;
#X obj 330 286 t b;
#X obj 330 233 f;
#X obj 330 311 f;
#X msg 444 310 0;
#X obj 330 263 moses 1;
#X obj 444 282 t b f;
#X obj 410 225 moses 1;
#X obj 56 26 bng 15 250 50 0 empty empty mute 0 -7 0 12 -262144 -1
-1;
#X text 235 97 make a ramp to avoid clicks or zipper noise -->;
#X text 319 67 convert from dB to linear units -->;
#X obj 650 -3 dbtorms;
#X obj 650 55 line~;
#X obj 739 209 *~;
#X obj 650 27 pack 0 50;
#X obj 777 209 *~;
#X obj 295 -74 inlet;
#X obj 294 -16 sel 0;
#X obj 295 -45 t f f;
#X obj 294 10 bng 15 250 50 0 empty empty empty 17 7 0 10 -262144 -1
-1;
#X obj 326 11 bng 15 250 50 0 empty empty empty 17 7 0 10 -262144 -1
-1;
#X text 339 -73 1 mute \, 0 unmute;
#X obj 669 332 dac~ \$1 \$2;
#X obj 95 -60 r \$3-master-lvl;
#X obj 20 109 s \$3-master-out;
#X obj 410 198 r \$3-master-out;
#X obj 330 337 s \$3-master-lvl;
#X obj 650 -29 r \$3-master-out;
#X connect 0 0 4 0;
#X connect 2 0 5 0;
#X connect 4 0 21 1;
#X connect 5 0 23 1;
#X connect 6 0 1 0;
#X connect 6 0 32 0;
#X connect 9 0 11 0;
#X connect 10 0 13 0;
#X connect 11 0 34 0;
#X connect 12 0 34 0;
#X connect 13 0 9 0;
#X connect 13 1 14 0;
#X connect 14 0 12 0;
#X connect 15 1 11 1;
#X connect 16 0 10 0;
#X connect 19 0 22 0;
#X connect 20 0 23 0;
#X connect 20 0 21 0;
#X connect 21 0 30 0;
#X connect 22 0 20 0;
#X connect 23 0 30 1;
#X connect 24 0 26 0;
#X connect 25 0 27 0;
#X connect 25 1 28 0;
#X connect 26 0 25 1;
#X connect 26 1 25 0;
#X connect 28 0 16 0;
#X connect 31 0 6 0;
#X connect 33 0 10 1;
#X connect 33 0 15 0;
#X connect 35 0 19 0;
#X coords 0 0 1 1 85 45 1 0 0;
