#N canvas 405 129 422 233 10;
#X obj 87 139 pack f f f f f f;
#X obj 128 89 t b \$2;
#X obj 175 89 t b \$3;
#X obj 223 89 t b \$4;
#X obj 266 89 t b \$5;
#X obj 310 89 t b \$6;
#X obj 88 179 outlet;
#X obj 87 89 f \$1;
#X obj 87 39 inlet;
#X obj 126 39 inlet;
#X obj 163 39 inlet;
#X obj 201 39 inlet;
#X obj 238 39 inlet;
#X obj 276 39 inlet;
#X connect 0 0 6 0;
#X connect 1 0 0 0;
#X connect 1 1 0 1;
#X connect 2 0 0 0;
#X connect 2 1 0 2;
#X connect 3 0 0 0;
#X connect 3 1 0 3;
#X connect 4 0 0 0;
#X connect 4 1 0 4;
#X connect 5 0 0 0;
#X connect 5 1 0 5;
#X connect 7 0 0 0;
#X connect 8 0 7 0;
#X connect 9 0 1 0;
#X connect 10 0 2 0;
#X connect 11 0 3 0;
#X connect 12 0 4 0;
#X connect 13 0 5 0;
