#N canvas 199 36 1173 398 10;
#X obj 57 237 t b l;
#X obj 75 122 t b f;
#X obj 20 14 inlet;
#X obj 75 14 inlet;
#X obj 57 305 outlet;
#X obj 112 305 outlet;
#X obj 130 122 t b f;
#X obj 130 14 inlet;
#X obj 186 124 t b f;
#X obj 186 16 inlet;
#X obj 241 124 t b f;
#X obj 241 16 inlet;
#X obj 311 125 t b f;
#X obj 311 17 inlet;
#X obj 366 125 t b f;
#X obj 366 17 inlet;
#X obj 425 125 t b f;
#X obj 425 17 inlet;
#X obj 57 210 pack \$1 \$2 \$3 \$4 \$5 \$6 \$7 \$8 \$9;
#X obj 489 125 t b f;
#X obj 489 17 inlet;
#X connect 0 0 4 0;
#X connect 0 1 5 0;
#X connect 1 0 18 0;
#X connect 1 1 18 1;
#X connect 2 0 18 0;
#X connect 3 0 1 0;
#X connect 6 0 18 0;
#X connect 6 1 18 2;
#X connect 7 0 6 0;
#X connect 8 0 18 0;
#X connect 8 1 18 3;
#X connect 9 0 8 0;
#X connect 10 0 18 0;
#X connect 10 1 18 4;
#X connect 11 0 10 0;
#X connect 12 0 18 0;
#X connect 12 1 18 5;
#X connect 13 0 12 0;
#X connect 14 0 18 0;
#X connect 14 1 18 6;
#X connect 15 0 14 0;
#X connect 16 0 18 0;
#X connect 16 1 18 7;
#X connect 17 0 16 0;
#X connect 18 0 0 0;
#X connect 19 0 18 0;
#X connect 19 1 18 8;
#X connect 20 0 19 0;
