#N canvas 26 163 625 720 10;
#X obj 190 404 cnv 15 400 300 empty empty Restore 300 12 0 14 -233017
-123526 0;
#X obj 190 101 cnv 15 400 300 empty empty Save 300 12 0 14 -233017
-123526 0;
#X obj 416 326 textfile;
#X msg 305 227 clear;
#X msg 490 309 print;
#X obj 416 250 list prepend add;
#X obj 416 276 list trim;
#X obj 263 609 textfile;
#X obj 263 551 until;
#X msg 263 530 100;
#X msg 207 592 print;
#X text 258 661 also received inside sssad;
#X obj 416 226 route persist;
#X obj 416 204 list trim;
#X msg 283 261 save;
#X msg 297 300 set;
#X msg 331 611 set;
#X obj 261 148 savepanel;
#X obj 261 191 t a b b;
#X msg 261 374 write \$1;
#X obj 263 507 t b a;
#X msg 310 552 read \$1 \, rewind;
#X obj 263 454 openpanel;
#X text 295 530 Avoid loops. A bang normally also works.;
#X obj 261 170 symbol;
#X msg 204 152 bang;
#X text 202 132 again;
#X obj 263 484 symbol;
#X msg 206 467 bang;
#X text 204 447 again;
#X obj 157 132 bng 24 250 50 0 empty empty save 0 -6 0 8 -262144 -1
-1;
#X obj 105 132 bng 24 250 50 0 empty empty load 0 -6 0 8 -262144 -1
-1;
#X obj 283 327 s \$1-SSSAD_ADMIN;
#X obj 416 182 r \$1-SSSAD_ADMIN;
#X obj 331 636 s \$1-SSSAD_ADMIN;
#X obj 263 639 s \$1-SSSAD;
#X connect 3 0 2 0;
#X connect 4 0 2 0;
#X connect 5 0 6 0;
#X connect 6 0 2 0;
#X connect 7 0 35 0;
#X connect 7 1 8 1;
#X connect 7 1 16 0;
#X connect 8 0 7 0;
#X connect 9 0 8 0;
#X connect 10 0 7 0;
#X connect 12 0 5 0;
#X connect 13 0 12 0;
#X connect 14 0 32 0;
#X connect 15 0 32 0;
#X connect 16 0 34 0;
#X connect 17 0 24 0;
#X connect 18 0 19 0;
#X connect 18 1 14 0;
#X connect 18 2 3 0;
#X connect 19 0 2 0;
#X connect 20 0 9 0;
#X connect 20 1 21 0;
#X connect 21 0 7 0;
#X connect 22 0 27 0;
#X connect 24 0 18 0;
#X connect 25 0 24 0;
#X connect 27 0 20 0;
#X connect 28 0 27 0;
#X connect 30 0 17 0;
#X connect 31 0 22 0;
#X connect 33 0 13 0;
#X coords 0 -1 1 1 85 60 1 100 100;
