#N canvas 384 237 455 398 10;
#X obj 16 70 inlet;
#X obj 16 326 + \$1;
#X obj 16 119 random \$3;
#X obj 16 298 *;
#X obj 32 244 - \$1;
#X obj 55 70 inlet;
#X obj 94 70 inlet;
#X obj 94 156 f \$2;
#X obj 55 156 t b f;
#X obj 133 70 inlet;
#X obj 16 353 outlet;
#X obj 117 119 loadbang;
#X obj 16 205 / \$3;
#X text 19 9 outputs with every bang at it's left-most inlet randomly
one of the \$3 equally-spaced numbers between \$1 (inclusive) and \$2
(exclusive).;
#X connect 0 0 2 0;
#X connect 1 0 10 0;
#X connect 2 0 12 0;
#X connect 3 0 1 0;
#X connect 4 0 3 1;
#X connect 5 0 8 0;
#X connect 6 0 7 0;
#X connect 7 0 4 0;
#X connect 8 0 4 0;
#X connect 8 1 4 1;
#X connect 8 1 1 1;
#X connect 9 0 2 1;
#X connect 9 0 12 1;
#X connect 11 0 7 0;
#X connect 12 0 3 0;
