#N canvas 211 345 768 488 10;
#X obj 222 214 textfile;
#X msg 447 92 clear;
#X msg 308 190 print;
#X msg 206 -52 add2 \$1;
#X msg 283 -52 add2 \$1;
#X msg 355 -50 add2 \$1;
#X msg 433 -52 add \$1;
#X msg 20 102 rewind;
#X obj 267 237 print done textfile;
#X obj 222 275 unpack f f f f;
#X obj 52 209 pow -1;
#X floatatom 52 254 5 0 0 0 - - -;
#X obj 52 231 * 1000;
#X text 261 34 write to file;
#X text 276 322 read from file;
#X obj 206 20 _spigot4;
#X obj 222 307 _spigot4;
#X obj 438 349 timer;
#X obj 440 326 bng 15 250 50 0 empty empty empty 17 7 0 10 -262144
-1 -1;
#X obj 466 320 bng 15 250 50 0 empty empty empty 17 7 0 10 -262144
-1 -1;
#X floatatom 437 373 10 0 0 0 - - -;
#X obj -54 454 timer;
#X obj -52 431 bng 15 250 50 0 empty empty empty 17 7 0 10 -262144
-1 -1;
#X obj -26 425 bng 15 250 50 0 empty empty empty 17 7 0 10 -262144
-1 -1;
#X floatatom -55 478 10 0 0 0 - - -;
#X obj 8 281 _delmetro 0.68;
#X obj 8 259 tgl 15 0 empty empty empty 17 7 0 10 -262144 -1 -1 0 1
;
#X msg 466 115 write prova.txt cr;
#X obj 206 -76 inlet;
#X obj 284 -75 inlet;
#X obj 355 -74 inlet;
#X obj 433 -75 inlet;
#X obj 171 391 outlet;
#X obj 220 391 outlet;
#X obj 269 391 outlet;
#X obj 318 391 outlet;
#X obj -85 -75 inlet;
#X text 204 -93 the last 4 inlets provide data to be written;
#X obj -2 -75 inlet;
#X text -6 -60 only needed;
#X text -6 -50 when reading;
#X text -4 -92 output rate (Hz);
#X text 158 21 write;
#X obj 8 38 tgl 35 0 empty empty empty 17 7 0 10 -204800 -1 -1 0 1
;
#X obj 160 38 tgl 35 0 empty empty empty 17 7 0 10 -258113 -1 -1 0
1;
#X text 3 21 read mode;
#X obj 8 142 t f f;
#X obj 19 78 bng 15 250 50 0 empty empty empty 17 7 0 10 -262144 -1
-1;
#X text 36 77 rewind;
#X obj -224 79 list prepend;
#X obj -224 141 list prepend;
#X msg -224 56 cr;
#X obj -155 35 makefilename prova%d.txt;
#X symbolatom -155 57 20 0 0 0 - - -;
#X text -107 -92 file number;
#X floatatom -121 -55 5 0 0 0 - - -;
#X msg -155 102 read;
#X obj -224 167 prepend set;
#X obj -85 -22 t b b f;
#X msg 86 112 read prova8.txt cr;
#X obj -149 255 list prepend;
#X obj -149 281 prepend set;
#X msg -80 214 write;
#X connect 0 0 9 0;
#X connect 0 1 8 0;
#X connect 0 1 26 0;
#X connect 1 0 0 0;
#X connect 1 0 18 0;
#X connect 2 0 0 0;
#X connect 3 0 15 0;
#X connect 4 0 15 1;
#X connect 5 0 15 2;
#X connect 6 0 15 3;
#X connect 7 0 0 0;
#X connect 9 0 16 0;
#X connect 9 1 16 1;
#X connect 9 2 16 2;
#X connect 9 3 16 3;
#X connect 10 0 12 0;
#X connect 11 0 25 1;
#X connect 12 0 11 0;
#X connect 15 0 0 0;
#X connect 15 1 0 0;
#X connect 15 2 0 0;
#X connect 15 3 0 0;
#X connect 16 0 32 0;
#X connect 16 1 33 0;
#X connect 16 2 34 0;
#X connect 16 3 35 0;
#X connect 17 0 20 0;
#X connect 18 0 17 0;
#X connect 19 0 17 1;
#X connect 21 0 24 0;
#X connect 22 0 21 0;
#X connect 23 0 21 1;
#X connect 25 0 0 0;
#X connect 26 0 25 0;
#X connect 27 0 0 0;
#X connect 27 0 19 0;
#X connect 28 0 3 0;
#X connect 29 0 4 0;
#X connect 30 0 5 0;
#X connect 31 0 6 0;
#X connect 36 0 58 0;
#X connect 38 0 10 0;
#X connect 43 0 46 0;
#X connect 46 0 26 0;
#X connect 46 1 16 4;
#X connect 47 0 7 0;
#X connect 49 0 50 0;
#X connect 50 0 57 0;
#X connect 51 0 49 0;
#X connect 52 0 53 0;
#X connect 53 0 49 1;
#X connect 55 0 58 0;
#X connect 56 0 50 1;
#X connect 57 0 59 0;
#X connect 58 0 51 0;
#X connect 58 1 56 0;
#X connect 58 2 52 0;
#X connect 59 0 0 0;
#X connect 60 0 61 0;
#X connect 62 0 60 1;
#X coords 0 -1 1 1 200 100 1 0 0;
