#N canvas 203 323 265 287 10;
#X msg 23 100 \$1 \$2;
#X obj 23 15 inlet;
#X obj 88 15 inlet;
#X obj 23 158 outlet;
#X obj 23 72 pack \$1 \$2;
#X obj 23 133 line \$1 \$3;
#X connect 0 0 5 0;
#X connect 1 0 4 0;
#X connect 2 0 4 1;
#X connect 4 0 0 0;
#X connect 5 0 3 0;
