#N canvas 123 438 331 244 10;
#X obj -187 147 spigot;
#X obj -134 146 spigot;
#X obj -78 146 spigot;
#X obj -19 155 spigot;
#X obj -19 96 inlet;
#X obj -78 97 inlet;
#X obj -134 97 inlet;
#X obj -187 99 inlet;
#X obj -186 195 outlet;
#X obj -133 194 outlet;
#X obj -76 196 outlet;
#X obj -15 198 outlet;
#X obj 108 115 tgl 25 0 empty empty empty 17 7 0 10 -257985 -1 -1 0
1;
#X obj 102 77 inlet;
#X obj 90 195 outlet;
#X obj 36 158 spigot;
#X obj 35 97 inlet;
#X obj 39 199 outlet;
#X connect 0 0 8 0;
#X connect 1 0 9 0;
#X connect 2 0 10 0;
#X connect 3 0 11 0;
#X connect 4 0 3 0;
#X connect 5 0 2 0;
#X connect 6 0 1 0;
#X connect 7 0 0 0;
#X connect 12 0 0 1;
#X connect 12 0 1 1;
#X connect 12 0 2 1;
#X connect 12 0 3 1;
#X connect 12 0 14 0;
#X connect 12 0 15 1;
#X connect 13 0 12 0;
#X connect 15 0 17 0;
#X connect 16 0 15 0;
#X coords 0 -1 1 1 40 45 1 100 100;
