#N canvas 110 253 570 296 10;
#X obj 169 205 switch 2;
#X obj 232 205 switch 2;
#X obj 296 205 switch 2;
#X obj 357 205 switch 2;
#X obj 192 270 outlet;
#X obj 240 270 outlet;
#X obj 289 270 outlet;
#X obj 340 270 outlet;
#X obj 163 56 inlet;
#X obj 211 56 inlet;
#X obj 260 56 inlet;
#X obj 311 56 inlet;
#X obj 378 55 inlet;
#X obj 426 55 inlet;
#X obj 475 55 inlet;
#X obj 526 55 inlet;
#X obj 103 164 + 1;
#X obj 103 116 hradio 40 1 0 2 empty empty empty 0 -8 0 10 -262144
-1 -1 0;
#X msg 41 92 0;
#X obj 41 71 loadbang;
#X obj 103 46 inlet;
#X connect 0 0 4 0;
#X connect 1 0 5 0;
#X connect 2 0 6 0;
#X connect 3 0 7 0;
#X connect 8 0 0 1;
#X connect 9 0 1 1;
#X connect 10 0 2 1;
#X connect 11 0 3 1;
#X connect 12 0 0 2;
#X connect 13 0 1 2;
#X connect 14 0 2 2;
#X connect 15 0 3 2;
#X connect 16 0 0 0;
#X connect 16 0 1 0;
#X connect 16 0 2 0;
#X connect 16 0 3 0;
#X connect 17 0 16 0;
#X connect 18 0 17 0;
#X connect 19 0 18 0;
#X connect 20 0 17 0;
#X coords 0 -1 1 1 85 75 1 100 100;
