#N canvas 711 416 219 260 10;
#X obj -59 -134 inlet;
#X obj -59 76 outlet;
#X obj -5 -134 inlet;
#X floatatom 17 -75 5 0 0 0 - - -;
#X floatatom -95 -135 5 0 0 0 - - -;
#X obj -59 -26 _uponly;
#X floatatom -8 -26 5 0 0 0 - - -;
#X floatatom -5 -111 5 0 0 0 - - -;
#X text -8 -153 smoothing (samples);
#X obj -59 -75 median_n \$1;
#X connect 0 0 4 0;
#X connect 0 0 9 0;
#X connect 2 0 7 0;
#X connect 5 0 6 0;
#X connect 5 0 1 0;
#X connect 7 0 9 1;
#X connect 9 0 3 0;
#X connect 9 0 5 0;
