#N canvas 0 0 254 270 10;
#X obj 104 120 vu 10 80 empty empty -1 -8 0 10 -66577 -1 0 0;
#X obj 103 75 env~;
#X obj 103 98 - 101;
#X obj 103 44 inlet~;
#X connect 1 0 2 0;
#X connect 2 0 0 0;
#X connect 3 0 1 0;
#X coords 0 -1 1 1 20 105 1 100 100;
