#N canvas 257 22 764 887 10;
#X obj 7 -784 _Arduino_RX_TX;
#X obj 74 -126 textfile;
#X msg 382 -229 clear;
#X msg 315 -228 print;
#X msg 14 -261 add2 \$1;
#X msg 91 -261 add2 \$1;
#X msg 163 -259 add2 \$1;
#X obj 132 -482 vsl 25 128 -512 511 0 0 empty empty ch3 0 -9 0 10 -99865
-262144 -1 6716 1;
#X floatatom 132 -346 5 0 0 0 - - -;
#X obj 64 -481 vsl 25 128 -512 511 0 0 empty empty ch2 0 -9 0 10 -99865
-262144 -1 6381 1;
#X floatatom 64 -346 5 0 0 0 - - -;
#X obj 14 -481 vsl 25 128 0 1024 0 0 empty empty ch1 0 -9 0 10 -99865
-262144 -1 260 1;
#X floatatom 14 -346 5 0 0 0 - - -;
#X obj 170 -482 vsl 25 128 -512 511 0 0 empty empty ch4 0 -9 0 10 -99865
-262144 -1 7796 1;
#X floatatom 170 -346 5 0 0 0 - - -;
#X msg 241 -261 add \$1;
#N canvas 742 369 656 316 weightsDisplay 0;
#X obj 85 -59 vsl 25 128 0 30 0 1 empty empty Lheel_Weight 0 -9 0 10
-99865 -262144 -1 5 1;
#X floatatom 86 79 5 0 0 0 - - -;
#X obj 224 -62 vsl 25 128 0 30 0 1 empty empty Ltoe_Weight 0 -9 0 10
-99865 -262144 -1 0 1;
#X floatatom 225 76 5 0 0 0 - - -;
#X obj 373 -62 vsl 25 128 0 30 0 1 empty empty Rheel_Weight 0 -9 0
10 -99865 -262144 -1 9 1;
#X floatatom 374 76 5 0 0 0 - - -;
#X obj 535 -65 vsl 25 128 0 30 0 1 empty empty Rtoe_Weight 0 -9 0 10
-99865 -262144 -1 151 1;
#X floatatom 536 73 5 0 0 0 - - -;
#X obj 33 -93 +;
#X obj 187 -97 +;
#X obj 345 -99 +;
#X obj 510 -102 +;
#X obj 102 -127 * 5e-05;
#X obj 256 -131 * 5e-05;
#X obj 414 -133 * 5e-05;
#X obj 579 -136 * 5e-05;
#X obj 24 -126 * 2.4e-05;
#X obj 179 -131 * 2.6e-05;
#X obj 336 -132 * 2.4e-05;
#X obj 501 -135 * 2.6e-05;
#X obj 533 -167 pow 2;
#X obj 369 -164 pow 2;
#X obj 210 -162 pow 2;
#X obj 56 -158 pow 2;
#X obj 92 -182 r ch1;
#X obj 207 -186 r ch2;
#X obj 372 -192 r ch3;
#X obj 537 -192 r ch4;
#X connect 0 0 1 0;
#X connect 2 0 3 0;
#X connect 4 0 5 0;
#X connect 6 0 7 0;
#X connect 8 0 0 0;
#X connect 9 0 2 0;
#X connect 10 0 4 0;
#X connect 11 0 6 0;
#X connect 12 0 8 1;
#X connect 13 0 9 1;
#X connect 14 0 10 1;
#X connect 15 0 11 1;
#X connect 16 0 8 0;
#X connect 17 0 9 0;
#X connect 18 0 10 0;
#X connect 19 0 11 0;
#X connect 20 0 19 0;
#X connect 21 0 18 0;
#X connect 22 0 17 0;
#X connect 23 0 16 0;
#X connect 24 0 12 0;
#X connect 24 0 23 0;
#X connect 25 0 22 0;
#X connect 25 0 13 0;
#X connect 26 0 21 0;
#X connect 26 0 14 0;
#X connect 27 0 20 0;
#X connect 27 0 15 0;
#X restore 506 -784 pd weightsDisplay;
#X msg 241 14 rewind;
#X obj 416 -12 bng 15 250 50 0 empty empty empty 17 7 0 10 -262144
-1 -1;
#X obj 155 -87 print done textfile;
#X obj 460 -13 bng 15 250 50 0 empty empty empty 17 7 0 10 -262144
-1 -1;
#X obj 14 -61 unpack f f f f;
#X floatatom 16 42 5 0 0 0 - - -;
#X floatatom 56 41 5 0 0 0 - - -;
#X floatatom 96 42 5 0 0 0 - - -;
#X floatatom 133 42 5 0 0 0 - - -;
#X obj 559 -12 pow -1;
#X floatatom 559 33 8 0 0 0 - - -;
#X obj 559 10 * 1000;
#X obj 83 -583 _spigot4;
#X obj 149 -583 expr 1-$f1;
#X obj 14 -215 _spigot4;
#X obj 15 -16 _spigot4;
#X obj 128 -718 loadbang;
#X msg 128 -698 1;
#X obj 435 -155 timer;
#X obj 437 -178 bng 15 250 50 0 empty empty empty 17 7 0 10 -262144
-1 -1;
#X obj 459 -178 bng 15 250 50 0 empty empty empty 17 7 0 10 -262144
-1 -1;
#X floatatom 434 -131 10 0 0 0 - - -;
#X obj 679 10 timer;
#X obj 681 -13 bng 15 250 50 0 empty empty empty 17 7 0 10 -262144
-1 -1;
#X obj 707 -19 bng 15 250 50 0 empty empty empty 17 7 0 10 -262144
-1 -1;
#X floatatom 678 34 10 0 0 0 - - -;
#X obj 417 9 tgl 15 0 empty empty empty 17 7 0 10 -262144 -1 -1 0 1
;
#X text 406 -27 start;
#X text 455 -28 stop;
#X text 526 -58 sample rate;
#X text 473 -376 send to models;
#X text 478 -629 read from file;
#X text 88 -663 receive from Arduino;
#X text 89 -302 receive from Arduino;
#X text 419 -230 clear buffer;
#X msg 528 -40 1470.5;
#X obj 84 -160 bng 15 250 50 0 empty empty empty 17 7 0 10 -262144
-1 -1;
#X text 608 -217 write to disk;
#X text 270 -28 read from disk;
#X text 71 -201 enable write to file;
#X text 72 -1 enable read from file;
#X text 431 -114 elapsed time (recorded data);
#X text 602 53 elapsed time (read data);
#X obj 452 70 t b b;
#X msg 576 -40 694.5;
#X obj 417 31 _delmetro 1.43988;
#X symbolatom 528 -238 25 0 0 0 - - -;
#X obj 528 -260 r fileName;
#X msg 528 -216 write \$1 cr;
#X obj 382 -257 r clear;
#X msg 655 -40 1000;
#X msg 620 -40 1050;
#X msg 241 -12 read normalWalk3.txt cr;
#X obj 283 -460 vsl 15 128 0 1023 0 0 empty empty manual_test 0 -9
0 10 -262144 -1 -1 0 1;
#X obj 7 -751 s ch1_Ard;
#X obj 84 -751 s ch2_Ard;
#X obj 166 -751 s ch3_Ard;
#X obj 247 -751 s ch4_Ard;
#X obj 11 -644 r ch1_Ard;
#X obj 89 -644 r ch2_Ard;
#X obj 163 -645 r ch3_Ard;
#X obj 240 -644 r ch4_Ard;
#X obj 349 -609 r ch1_file;
#X obj 540 -608 r ch3_file;
#X obj 440 -609 r ch2_file;
#X obj 639 -608 r ch4_file;
#X obj 10 -283 r ch1_Ard;
#X obj 88 -283 r ch2_Ard;
#X obj 162 -284 r ch3_Ard;
#X obj 239 -283 r ch4_Ard;
#X obj 347 -394 s ch1;
#X obj 440 -394 s ch2;
#X obj 539 -394 s ch3;
#X obj 638 -396 s ch4;
#X obj 16 68 s ch1_file;
#X obj 87 68 s ch2_file;
#X obj 157 68 s ch3_file;
#X obj 226 67 s ch4_file;
#X msg 527 -290 write test.txt cr;
#X connect 0 0 71 0;
#X connect 0 1 72 0;
#X connect 0 2 73 0;
#X connect 0 3 74 0;
#X connect 1 0 21 0;
#X connect 1 1 19 0;
#X connect 1 1 20 0;
#X connect 2 0 1 0;
#X connect 2 0 36 0;
#X connect 3 0 1 0;
#X connect 4 0 31 0;
#X connect 5 0 31 1;
#X connect 6 0 31 2;
#X connect 7 0 8 0;
#X connect 9 0 10 0;
#X connect 11 0 12 0;
#X connect 13 0 14 0;
#X connect 15 0 31 3;
#X connect 17 0 1 0;
#X connect 18 0 40 0;
#X connect 18 0 43 0;
#X connect 20 0 41 0;
#X connect 20 0 43 0;
#X connect 20 0 60 0;
#X connect 21 0 32 0;
#X connect 21 1 32 1;
#X connect 21 2 32 2;
#X connect 21 3 32 3;
#X connect 22 0 91 0;
#X connect 23 0 92 0;
#X connect 24 0 93 0;
#X connect 25 0 94 0;
#X connect 26 0 28 0;
#X connect 27 0 62 1;
#X connect 28 0 27 0;
#X connect 29 0 11 0;
#X connect 29 0 87 0;
#X connect 29 1 88 0;
#X connect 29 1 9 0;
#X connect 29 2 7 0;
#X connect 29 2 89 0;
#X connect 29 3 13 0;
#X connect 29 3 90 0;
#X connect 30 0 29 4;
#X connect 31 0 1 0;
#X connect 31 1 1 0;
#X connect 31 2 1 0;
#X connect 31 3 1 0;
#X connect 31 4 53 0;
#X connect 32 0 22 0;
#X connect 32 1 23 0;
#X connect 32 2 24 0;
#X connect 32 3 25 0;
#X connect 32 4 30 0;
#X connect 33 0 34 0;
#X connect 34 0 29 4;
#X connect 35 0 38 0;
#X connect 36 0 35 0;
#X connect 37 0 35 1;
#X connect 39 0 42 0;
#X connect 40 0 39 0;
#X connect 41 0 39 1;
#X connect 43 0 62 0;
#X connect 52 0 26 0;
#X connect 60 0 18 0;
#X connect 60 1 17 0;
#X connect 61 0 26 0;
#X connect 62 0 1 0;
#X connect 63 0 65 0;
#X connect 64 0 63 0;
#X connect 65 0 37 0;
#X connect 65 0 1 0;
#X connect 66 0 2 0;
#X connect 67 0 26 0;
#X connect 68 0 26 0;
#X connect 69 0 1 0;
#X connect 70 0 87 0;
#X connect 75 0 29 0;
#X connect 76 0 29 1;
#X connect 77 0 29 2;
#X connect 78 0 29 3;
#X connect 79 0 87 0;
#X connect 79 0 11 0;
#X connect 80 0 7 0;
#X connect 80 0 89 0;
#X connect 81 0 9 0;
#X connect 81 0 88 0;
#X connect 82 0 13 0;
#X connect 82 0 90 0;
#X connect 83 0 4 0;
#X connect 84 0 5 0;
#X connect 85 0 6 0;
#X connect 86 0 15 0;
#X connect 95 0 1 0;
